<?xml version="1.0" encoding="UTF-8"?>
<!DOCTYPE svg PUBLIC "-//W3C//DTD SVG 1.1//EN" "http://www.w3.org/Graphics/SVG/1.1/DTD/svg11.dtd">
<!-- Creator: CorelDRAW X8 -->
<svg xmlns="http://www.w3.org/2000/svg" xml:space="preserve" width="3.6in" height="3.6in" version="1.1" style="shape-rendering:geometricPrecision; text-rendering:geometricPrecision; image-rendering:optimizeQuality; fill-rule:evenodd; clip-rule:evenodd"
viewBox="0 0 2745 2745"
 xmlns:xlink="http://www.w3.org/1999/xlink">
 <defs>
  <style type="text/css">
   <![CDATA[
    .fil0 {fill:none}
    .fil149 {fill:none;fill-rule:nonzero}
    .fil78 {fill:#E7D7B5;fill-rule:nonzero}
    .fil47 {fill:#E7D5B4;fill-rule:nonzero}
    .fil118 {fill:#E4D4B2;fill-rule:nonzero}
    .fil147 {fill:#E3D3B2;fill-rule:nonzero}
    .fil48 {fill:#E3D2B2;fill-rule:nonzero}
    .fil117 {fill:#E0D2B2;fill-rule:nonzero}
    .fil102 {fill:#DECEAA;fill-rule:nonzero}
    .fil10 {fill:#DAC79F;fill-rule:nonzero}
    .fil14 {fill:#DAC59C;fill-rule:nonzero}
    .fil29 {fill:#D8C69F;fill-rule:nonzero}
    .fil18 {fill:#D8C49E;fill-rule:nonzero}
    .fil19 {fill:#D8C49C;fill-rule:nonzero}
    .fil125 {fill:#D8C29B;fill-rule:nonzero}
    .fil70 {fill:#D6C49C;fill-rule:nonzero}
    .fil67 {fill:#D6C49B;fill-rule:nonzero}
    .fil120 {fill:#D6C29A;fill-rule:nonzero}
    .fil94 {fill:#D3C39B;fill-rule:nonzero}
    .fil55 {fill:#D3C19B;fill-rule:nonzero}
    .fil105 {fill:#D3C19A;fill-rule:nonzero}
    .fil140 {fill:#D4C198;fill-rule:nonzero}
    .fil80 {fill:#D3C099;fill-rule:nonzero}
    .fil110 {fill:#D3C098;fill-rule:nonzero}
    .fil103 {fill:#D2C098;fill-rule:nonzero}
    .fil127 {fill:#D2BF98;fill-rule:nonzero}
    .fil106 {fill:#CFBE98;fill-rule:nonzero}
    .fil58 {fill:#CDBD98;fill-rule:nonzero}
    .fil8 {fill:#CDB88B;fill-rule:nonzero}
    .fil31 {fill:#CBB78D;fill-rule:nonzero}
    .fil7 {fill:#CBB78B;fill-rule:nonzero}
    .fil16 {fill:#CBB68B;fill-rule:nonzero}
    .fil77 {fill:#CBB689;fill-rule:nonzero}
    .fil23 {fill:#CBB489;fill-rule:nonzero}
    .fil1 {fill:#C8BC9B;fill-rule:nonzero}
    .fil112 {fill:#C8BC98;fill-rule:nonzero}
    .fil46 {fill:#C9B78D;fill-rule:nonzero}
    .fil56 {fill:#C9B58C;fill-rule:nonzero}
    .fil32 {fill:#C9B58B;fill-rule:nonzero}
    .fil49 {fill:#C9B38A;fill-rule:nonzero}
    .fil51 {fill:#C9B389;fill-rule:nonzero}
    .fil59 {fill:#C7B68E;fill-rule:nonzero}
    .fil66 {fill:#C7B58C;fill-rule:nonzero}
    .fil25 {fill:#C7B58B;fill-rule:nonzero}
    .fil60 {fill:#C7B389;fill-rule:nonzero}
    .fil62 {fill:#C7B387;fill-rule:nonzero}
    .fil148 {fill:#C7B288;fill-rule:nonzero}
    .fil3 {fill:#C4B999;fill-rule:nonzero}
    .fil89 {fill:#C4B994;fill-rule:nonzero}
    .fil115 {fill:#C4B48E;fill-rule:nonzero}
    .fil104 {fill:#C4B48D;fill-rule:nonzero}
    .fil113 {fill:#C4B48B;fill-rule:nonzero}
    .fil53 {fill:#C4B289;fill-rule:nonzero}
    .fil144 {fill:#C5B187;fill-rule:nonzero}
    .fil121 {fill:#C3B38B;fill-rule:nonzero}
    .fil108 {fill:#C3B28A;fill-rule:nonzero}
    .fil83 {fill:#C3B289;fill-rule:nonzero}
    .fil86 {fill:#C0B18A;fill-rule:nonzero}
    .fil130 {fill:#BEAB82;fill-rule:nonzero}
    .fil43 {fill:#BEA87E;fill-rule:nonzero}
    .fil15 {fill:#BEA578;fill-rule:nonzero}
    .fil96 {fill:#BCA377;fill-rule:nonzero}
    .fil74 {fill:#BCA880;fill-rule:nonzero}
    .fil109 {fill:#BCA67C;fill-rule:nonzero}
    .fil82 {fill:#BCA57B;fill-rule:nonzero}
    .fil26 {fill:#BCA579;fill-rule:nonzero}
    .fil141 {fill:#BCA479;fill-rule:nonzero}
    .fil28 {fill:#BBA378;fill-rule:nonzero}
    .fil36 {fill:#BBA377;fill-rule:nonzero}
    .fil69 {fill:#BBA375;fill-rule:nonzero}
    .fil143 {fill:#BBA176;fill-rule:nonzero}
    .fil151 {fill:#BBA175;fill-rule:nonzero}
    .fil128 {fill:#BCB08A;fill-rule:nonzero}
    .fil101 {fill:#BAA77E;fill-rule:nonzero}
    .fil91 {fill:#BAA57C;fill-rule:nonzero}
    .fil90 {fill:#BAA57B;fill-rule:nonzero}
    .fil75 {fill:#BAA579;fill-rule:nonzero}
    .fil65 {fill:#B8A478;fill-rule:nonzero}
    .fil44 {fill:#B8A278;fill-rule:nonzero}
    .fil64 {fill:#B8A277;fill-rule:nonzero}
    .fil116 {fill:#B7A47D;fill-rule:nonzero}
    .fil52 {fill:#B6A278;fill-rule:nonzero}
    .fil131 {fill:#B6A075;fill-rule:nonzero}
    .fil6 {fill:#B59B6D;fill-rule:nonzero}
    .fil133 {fill:#B4A37C;fill-rule:nonzero}
    .fil122 {fill:#B4A178;fill-rule:nonzero}
    .fil132 {fill:#B59E74;fill-rule:nonzero}
    .fil61 {fill:#B39D73;fill-rule:nonzero}
    .fil30 {fill:#B59E72;fill-rule:nonzero}
    .fil42 {fill:#B39D71;fill-rule:nonzero}
    .fil33 {fill:#B39D70;fill-rule:nonzero}
    .fil54 {fill:#B39D6E;fill-rule:nonzero}
    .fil40 {fill:#B39B70;fill-rule:nonzero}
    .fil24 {fill:#B39B6F;fill-rule:nonzero}
    .fil12 {fill:#B39B6E;fill-rule:nonzero}
    .fil35 {fill:#B29A6D;fill-rule:nonzero}
    .fil135 {fill:#B3A583;fill-rule:nonzero}
    .fil124 {fill:#B2A17A;fill-rule:nonzero}
    .fil152 {fill:#B09C74;fill-rule:nonzero}
    .fil27 {fill:#B19C71;fill-rule:nonzero}
    .fil92 {fill:#AF9B6F;fill-rule:nonzero}
    .fil37 {fill:#B19A6F;fill-rule:nonzero}
    .fil95 {fill:#AF9A6F;fill-rule:nonzero}
    .fil50 {fill:#B0996D;fill-rule:nonzero}
    .fil114 {fill:#AF9C71;fill-rule:nonzero}
    .fil123 {fill:#AC9C77;fill-rule:nonzero}
    .fil129 {fill:#AB9A73;fill-rule:nonzero}
    .fil81 {fill:#AB9972;fill-rule:nonzero}
    .fil76 {fill:#AB986F;fill-rule:nonzero}
    .fil41 {fill:#A9926A;fill-rule:nonzero}
    .fil137 {fill:#A99268;fill-rule:nonzero}
    .fil150 {fill:#A99266;fill-rule:nonzero}
    .fil21 {fill:#A99168;fill-rule:nonzero}
    .fil13 {fill:#A99066;fill-rule:nonzero}
    .fil38 {fill:#A88F65;fill-rule:nonzero}
    .fil87 {fill:#A8976E;fill-rule:nonzero}
    .fil119 {fill:#A8966E;fill-rule:nonzero}
    .fil100 {fill:#A8966C;fill-rule:nonzero}
    .fil79 {fill:#A7936A;fill-rule:nonzero}
    .fil20 {fill:#A89268;fill-rule:nonzero}
    .fil138 {fill:#A69167;fill-rule:nonzero}
    .fil146 {fill:#A89266;fill-rule:nonzero}
    .fil139 {fill:#A89068;fill-rule:nonzero}
    .fil98 {fill:#A68F67;fill-rule:nonzero}
    .fil45 {fill:#A68F65;fill-rule:nonzero}
    .fil88 {fill:#A5926B;fill-rule:nonzero}
    .fil97 {fill:#A4916A;fill-rule:nonzero}
    .fil126 {fill:#A5926A;fill-rule:nonzero}
    .fil99 {fill:#A49069;fill-rule:nonzero}
    .fil107 {fill:#A49067;fill-rule:nonzero}
    .fil73 {fill:#A48F67;fill-rule:nonzero}
    .fil22 {fill:#A48F65;fill-rule:nonzero}
    .fil84 {fill:#A2916A;fill-rule:nonzero}
    .fil85 {fill:#A08C64;fill-rule:nonzero}
    .fil136 {fill:#A08B61;fill-rule:nonzero}
    .fil9 {fill:#9F885F;fill-rule:nonzero}
    .fil93 {fill:#9C8963;fill-rule:nonzero}
    .fil63 {fill:#9D8960;fill-rule:nonzero}
    .fil57 {fill:#9D8862;fill-rule:nonzero}
    .fil142 {fill:#9D8860;fill-rule:nonzero}
    .fil145 {fill:#9C875F;fill-rule:nonzero}
    .fil34 {fill:#9D885F;fill-rule:nonzero}
    .fil4 {fill:#A3A288;fill-rule:nonzero}
    .fil72 {fill:#9A8861;fill-rule:nonzero}
    .fil39 {fill:#96815B;fill-rule:nonzero}
    .fil11 {fill:#96815A;fill-rule:nonzero}
    .fil17 {fill:#948059;fill-rule:nonzero}
    .fil134 {fill:#948460;fill-rule:nonzero}
    .fil5 {fill:#8E7A56;fill-rule:nonzero}
    .fil111 {fill:#877957;fill-rule:nonzero}
    .fil68 {fill:#857554;fill-rule:nonzero}
    .fil71 {fill:#857553;fill-rule:nonzero}
    .fil2 {fill:white;fill-rule:nonzero}
   ]]>
  </style>
 </defs>
 <g id="Layer_x0020_1">
  <metadata id="CorelCorpID_0Corel-Layer"/>
  <rect class="fil0" width="2745" height="2745"/>
  <g id="_1481879017952">
   <g>
    <path class="fil1" d="M1890 304c22,-2 38,9 46,29 7,19 5,37 -9,52 -16,16 -34,19 -55,12 -19,-7 -29,-22 -30,-41 -1,-21 7,-39 28,-47 4,3 10,0 12,5 2,7 -3,11 -7,15 -14,8 -16,23 -10,35 6,12 20,18 35,14 29,-23 28,-40 -3,-57 -4,-2 -9,-3 -11,-8 0,-4 1,-7 4,-9zm0 0c0,3 0,6 0,8 -3,4 -6,4 -10,2 -3,-2 -7,0 -10,-5 1,-1 2,-2 4,-2 3,-1 7,-1 11,-3 1,0 3,0 5,0zm-5 0c-4,2 -7,4 -11,3 3,-3 6,-4 11,-3z"/>
    <path class="fil2" d="M1880 314c3,-1 6,-1 10,-2 5,2 11,3 16,5 15,6 23,18 23,34 0,17 -8,30 -25,36 -2,-2 -4,-3 -6,-6 -1,-2 -1,-4 -1,-6 0,-2 0,-4 0,-6 -2,-11 7,-25 -10,-31 -5,-1 -10,-2 -14,-4 -2,-1 -4,-3 -5,-5 0,-3 0,-5 1,-7 4,-3 8,-6 11,-8z"/>
    <path class="fil2" d="M1904 378c0,3 0,6 0,9 -21,6 -36,1 -46,-16 -9,-16 -6,-33 11,-49 1,2 1,4 1,6 6,17 26,23 32,40 1,2 2,4 2,6 0,2 0,3 0,4z"/>
    <path class="fil3" d="M1900 372c-2,-2 -4,-5 -6,-7 -6,-8 -12,-11 -13,2 -1,4 -1,7 -7,9 -8,-15 -2,-32 -4,-48 2,0 3,0 5,0 2,2 4,4 6,5 2,0 4,0 6,-1 1,-1 2,-3 3,-4 25,0 30,6 18,27 -5,8 0,12 1,18 2,0 2,1 2,2 -1,1 -1,1 -2,1 -2,1 -3,1 -5,2l1 -1c-2,-2 -4,-3 -5,-5zm-21 -29c-1,-5 -3,-10 -4,-15 5,-1 10,-1 15,0l0 6c0,0 0,1 0,2 -1,3 -3,4 -6,5 -1,1 -3,1 -5,2zm11 -9c-3,1 -7,3 -10,4 2,-4 6,-5 10,-4z"/>
    <path class="fil4" d="M1909 376c0,-1 0,-2 0,-3 1,0 1,1 1,2 0,0 -1,1 -1,1z"/>
    <path class="fil4" d="M1900 372c1,2 3,3 5,5 -3,0 -5,-2 -5,-5z"/>
    <path class="fil2" d="M1879 343c1,-2 1,-3 1,-5 3,-3 7,-2 10,-4l0 0c3,0 5,1 7,2 3,1 6,3 6,7 -1,2 -3,4 -6,4 -6,1 -13,2 -18,-4z"/>
   </g>
   <path class="fil5" d="M376 2320c111,97 244,135 387,144 34,2 68,2 101,3 16,14 14,27 -1,39 -4,3 -9,6 -12,9 -25,23 -26,24 -53,5 -8,6 -7,17 -16,22 -6,3 -12,3 -18,0 -60,-1 -119,-12 -176,-31 -3,-1 -7,-3 -7,-6 -3,-16 -11,-4 -17,-3 -14,-3 -28,-7 -40,-15 -4,-7 5,-8 6,-13 -4,4 -8,11 -16,9 -97,-41 -174,-105 -223,-199 -4,-8 -6,-16 -9,-23 13,-21 18,-22 31,-2 13,19 30,36 44,54 5,7 11,10 19,7z"/>
   <path class="fil6" d="M1394 633c10,3 19,4 28,10 3,5 7,10 6,16 -2,7 -8,9 -12,13 -12,10 9,17 3,27 -6,8 -14,6 -22,6 -13,-8 -32,-8 -37,-27 0,-8 4,-15 8,-22 9,-15 4,-28 -8,-39 15,14 16,23 1,53 -2,6 0,14 -4,20 -18,19 -35,42 -64,47l-8 1c-17,0 -35,-3 -52,0 -6,2 -10,5 -14,9 -26,8 -53,11 -79,15 -19,3 -21,0 -25,-19 -4,-20 -7,-40 1,-60 4,-3 7,-8 13,-9 8,-1 11,-12 20,-10 2,1 4,2 6,4 6,20 -12,36 -11,56 0,3 -1,6 2,9 2,2 -1,-1 1,1 -1,0 -1,-1 -2,-2 -3,-10 7,-17 5,-26 15,-19 28,-38 30,-62 52,-15 98,-44 147,-66 13,-7 26,-15 40,-19 21,1 36,-10 49,-25 7,-6 16,-9 25,-13 11,5 14,15 14,25 1,17 4,34 11,49 -14,9 -28,16 -44,19 -3,-2 -5,-6 -5,-10 0,4 1,8 5,10 -2,4 -6,5 -10,5 -19,1 -19,1 -18,14z"/>
   <path class="fil7" d="M716 1339c-2,4 -5,7 -9,9 -17,0 -18,17 -27,23 -8,5 -17,7 -21,-2 -6,-12 -18,-16 -25,-25 3,-6 8,-11 14,-14 12,-3 22,-11 29,-21 1,-2 2,-4 4,-6 7,-8 16,-14 25,-18 3,-3 5,-5 8,-7 8,-6 16,-14 22,-16 -6,3 -15,10 -23,17 -3,2 -5,5 -8,7 -4,2 -9,3 -12,-2 15,-16 30,-31 47,-44 18,-14 38,-25 50,-46 7,-9 16,-16 25,-23 7,-5 17,-5 19,-16l0 1c2,-1 4,-3 5,-6 7,-8 15,-15 25,-20 3,1 4,-1 4,-4 4,-6 10,-10 16,-14 13,-1 21,-8 25,-20l0 0c1,-1 3,-3 5,-4 10,-11 22,-20 34,-28 16,5 20,-3 19,-17 -14,-17 -17,-57 -4,-69 11,-6 23,-9 35,-11 13,9 20,-4 29,-9 7,-5 16,-8 25,-9 9,2 17,6 13,18 -10,30 -23,59 -21,92 0,4 -4,8 -7,13 -5,6 -12,11 -20,15 -21,-2 -16,-20 -18,-33 -2,-8 2,-17 1,-27 4,38 -7,70 -32,97 -9,9 -18,17 -29,23 -11,-3 -10,9 -16,13 -2,3 -5,5 -9,7 -7,-2 -9,2 -10,8 -15,15 -31,30 -49,41 -8,-2 -7,5 -10,9 -36,33 -72,65 -109,98 -14,-2 -21,5 -20,20z"/>
   <path class="fil8" d="M1968 2014c30,-23 59,-45 88,-68 28,-23 56,-47 85,-70 17,-2 6,15 13,17 -4,-9 -2,-20 2,-31 14,-15 28,-29 43,-41 14,3 31,-17 43,5 2,13 -5,24 -8,35 -6,10 -17,17 -18,30 -53,53 -108,104 -168,148 -7,0 -16,-2 -14,10 -14,14 -29,24 -45,34 -14,1 -24,7 -29,21 -4,5 -9,8 -15,10 -37,-22 -71,-2 -105,9 -10,4 -20,9 -25,-6 33,-25 69,-47 104,-69 18,0 37,18 55,-1 3,-5 9,-6 10,-12 8,-17 -15,-11 -16,-21z"/>
   <path class="fil9" d="M1426 989c28,-29 54,-59 73,-95 15,-11 28,-7 40,6 -2,62 -25,116 -63,164 -6,7 -14,12 -16,22 8,8 18,5 27,6 23,1 46,3 68,10 -1,2 -2,4 -3,6 -15,10 -30,20 -25,41 -8,12 -18,22 -30,30 -5,4 -11,4 -18,4 -23,-8 -40,-24 -50,-47 0,-3 1,-5 2,-7 3,-6 15,-6 11,-16 -3,-8 -11,-8 -18,-8 -19,0 -30,-12 -41,-26 -2,-1 -3,-3 -3,-5 -4,-10 -8,-16 -20,-10 -11,6 -24,9 -32,-6 32,-20 63,-42 93,-65 13,5 18,13 17,27 -1,12 -6,15 -13,16 23,5 3,-37 30,-31 -13,-1 -25,-1 -29,-16z"/>
   <path class="fil8" d="M1437 2321c50,-26 101,-50 152,-76 34,-18 68,-36 102,-55 5,-2 9,0 12,5 -1,23 9,39 32,45 1,2 2,4 2,6 -12,9 -25,17 -40,23 -2,-2 -4,-2 -4,2 -21,15 -45,28 -69,39 -8,1 -15,2 -19,10 -25,16 -52,29 -79,40 -29,8 -54,-3 -79,-17 -8,-5 -15,-11 -10,-22z"/>
   <path class="fil10" d="M1953 1383c39,67 62,140 70,217 -11,14 -6,29 -1,44 3,7 7,14 5,23 -1,8 -5,14 -14,14 -9,0 -14,-6 -12,-14 4,-12 -4,-19 -7,-28 -6,-27 -17,-52 -26,-78 -1,-20 -9,-39 0,-59 -5,16 -5,16 -19,19l-30 -49c-2,-13 -4,-26 -20,-29 -11,-11 -21,-22 -30,-35 -8,-16 0,-30 9,-43 10,-8 21,-15 27,-26 6,-10 13,-10 20,-1 6,7 12,15 15,23 4,8 1,20 13,22z"/>
   <path class="fil11" d="M781 2536c0,-15 -2,-31 11,-43 10,-9 14,-7 18,5 1,4 1,8 3,12 2,5 4,11 11,11 6,0 9,-4 11,-8 3,-5 5,-11 11,-13 17,-5 19,-18 18,-33 45,-5 90,-6 135,-14 30,-6 61,-10 92,-16 1,1 1,2 2,3 3,11 -6,18 -8,28 0,3 -1,7 -1,10 0,5 1,10 -1,14 -2,7 -7,10 -14,10 -7,-2 -12,-8 -16,-10 8,7 25,13 9,30 -28,9 -56,12 -84,14 -5,-13 7,-16 14,-23 6,-5 16,-12 -1,-17 -8,1 -16,3 -21,10 -2,3 -6,8 -8,7 -30,-11 -38,15 -53,29 -10,4 -20,4 -30,3 -14,-10 -29,-3 -43,-3 -18,0 -38,10 -55,-6z"/>
   <path class="fil7" d="M948 1043c-40,11 -81,21 -123,20 -5,-10 -11,-16 -23,-12 -2,1 -4,2 -6,2 -19,-2 -38,-2 -55,9 -7,1 -14,0 -19,-4 -3,-10 -8,-18 -18,-21 -1,0 -2,-1 -3,-1 -9,-1 -16,6 -24,7 -4,0 -8,-1 -10,-5 -4,-5 -7,-10 -10,-16 -12,-30 -8,-37 25,-38 57,18 114,19 172,11 5,-1 10,-1 15,-1 4,4 7,4 9,-1 16,-6 32,-8 49,-10 23,1 32,10 31,31 -1,7 0,15 -4,22 -2,2 -4,4 -6,7z"/>
   <path class="fil12" d="M1205 1245c-17,6 -35,7 -53,10 -12,2 -18,-4 -21,-15 -8,-31 -9,-63 -5,-94 1,-14 8,-23 22,-25 9,-1 18,-3 27,-5l2 1c1,0 3,0 4,-1 1,-1 2,-2 4,-3 3,0 6,-1 10,-1 9,9 24,-4 33,7 1,2 2,4 2,6 -7,13 -6,22 9,28 10,4 16,11 18,21 1,6 5,9 10,12 2,2 3,4 3,6 -1,15 16,28 5,44 -8,5 -18,-2 -26,4 -10,4 -20,5 -30,4 -13,-5 -12,-22 -22,-27 8,7 15,15 8,28z"/>
   <path class="fil13" d="M1328 1058c8,-1 16,-1 24,-2 24,-6 24,-6 35,16 -4,5 -11,7 -12,15 1,-8 8,-10 12,-15 14,18 30,28 54,24 10,-2 23,14 22,24 0,4 -2,6 -5,7 -8,2 -15,3 -22,5 1,5 2,12 8,14 16,6 24,20 37,30 5,5 11,0 16,0 21,0 47,-11 57,22 2,9 14,14 21,20 9,7 15,16 4,26 -31,-4 -63,-9 -94,-13 0,-2 1,-4 2,-6 5,-4 10,-8 6,-16 -5,-17 -13,-7 -20,-2 -6,3 -10,10 -18,11 -16,2 -32,0 -48,3 -11,3 -23,2 -29,-11 7,-16 4,-27 -15,-31 -2,-10 -15,-17 -9,-29 15,-9 20,-9 46,-2 -14,1 -31,-12 -51,-3 -15,-3 -8,-20 -17,-26 -2,-17 -18,-16 -28,-23 -10,-13 7,-19 8,-29 5,-5 10,-8 16,-9z"/>
   <path class="fil7" d="M730 569c27,-34 58,-62 90,-91 33,-30 66,-60 103,-86 15,8 36,8 40,30 -31,26 -62,51 -94,77 -4,-3 -3,2 -4,3 -22,22 -46,42 -70,62 -5,4 -10,9 -17,7 -15,-3 -29,13 -44,4 -2,-2 -3,-4 -4,-6z"/>
   <path class="fil14" d="M1815 2117c30,-9 63,-14 91,-29 12,-7 17,-3 24,4 7,6 12,13 15,22 -8,8 -17,14 -26,18 -8,6 -22,2 -24,16 -18,15 -39,27 -59,39 -9,3 -20,4 -25,15 -7,6 -15,11 -24,15 -10,-1 -16,5 -22,11 -9,3 -18,0 -17,-8 2,-20 -7,-39 -7,-59 2,-1 4,-3 6,-4 17,-4 17,-4 37,24 -10,-14 -24,-28 -3,-44 10,-9 21,-16 34,-20z"/>
   <path class="fil15" d="M1160 239c26,-14 53,-25 82,-30 5,-3 12,0 17,-4 1,-1 2,-2 3,-1 28,12 57,-1 85,1l1 0c20,9 38,22 59,29l0 0c7,14 13,28 19,43 -2,10 9,19 5,30 -2,2 -4,3 -6,3 -10,-9 -19,-17 -29,-25 -13,-30 -38,-27 -64,-24 -19,3 -38,-5 -57,-3 -11,1 -20,2 -26,10 -2,1 -3,1 -5,1 -5,4 -10,1 -15,-1 -10,-2 -19,-2 -29,-2 -5,-1 -9,-2 -13,2 -10,9 -21,9 -29,0 -8,-9 -7,-20 2,-29z"/>
   <path class="fil12" d="M1382 1206c8,5 18,11 27,4 16,-13 31,-9 47,0 9,4 11,11 5,19 -71,-1 -142,6 -212,11 7,-5 16,-5 25,-5 11,-18 -4,-30 -10,-44l0 0c-2,-2 -3,-4 -3,-6 5,-17 -12,-22 -18,-33 -2,-11 5,-24 -10,-31 -4,-6 -10,-12 -5,-20l0 1c2,-1 4,-3 6,-4 2,0 3,-1 5,-1 21,-3 39,3 55,18 2,4 4,9 3,15 -18,23 -14,30 19,42 19,15 47,13 65,30l1 4z"/>
   <path class="fil7" d="M2029 1764c0,30 -4,60 -11,90 -3,13 -9,25 -20,33 -13,9 -23,7 -29,-8 -8,-18 -12,-37 -11,-57 6,-16 13,-33 2,-50 0,-5 -1,-11 1,-16 4,-20 5,-21 27,-17 11,6 27,-6 36,9 2,5 7,10 5,16z"/>
   <path class="fil12" d="M1673 1273c-6,-1 -11,-3 -16,-7 -7,-17 -23,-7 -34,-11 -5,0 -11,-1 -15,-4 -15,-16 -12,-30 5,-42 13,-12 10,-29 14,-44 -11,0 -19,8 -28,10 -17,5 -28,-3 -24,-21 2,-9 7,-18 11,-27 5,-15 17,-14 29,-11 12,1 23,5 33,11 30,17 45,41 37,77 -2,7 5,7 9,9 3,0 5,1 7,2 11,10 15,1 22,-6 10,-12 21,-27 39,-12 3,7 2,15 3,23 2,25 -22,30 -32,46 -9,2 -19,1 -29,1 -6,0 -12,0 -17,0 -2,-1 -4,-1 -6,0 -2,3 -6,4 -8,6z"/>
   <path class="fil13" d="M1293 2379c3,-3 6,-5 10,-5 16,9 17,29 31,39 0,11 20,11 13,25 -13,9 -28,14 -44,18 -10,-4 -18,-4 -23,7 -16,9 -34,13 -51,18 -9,-8 -27,-1 -31,-18 0,-21 -7,-44 16,-58 18,-7 37,-13 55,-19 10,5 18,1 24,-7z"/>
   <path class="fil16" d="M1504 490c14,-10 30,-17 46,-24 13,2 21,-7 29,-15 9,-7 18,-12 29,-15 15,-2 14,7 14,17 0,6 -9,21 9,19 18,-1 20,14 26,25 0,1 1,2 1,3 -35,21 -71,39 -108,55 -16,3 -17,-9 -20,-19 0,1 -1,2 -1,3 -5,16 -12,27 -31,22 -5,-20 -2,-40 -2,-60 0,-4 6,-7 8,-11z"/>
   <path class="fil17" d="M376 2320c0,1 0,2 0,3 -1,7 3,18 -7,21 -10,3 -20,-6 -22,-15 -5,-26 -29,-40 -38,-63 -6,-15 -17,-8 -27,-5 -27,-56 -39,-116 -39,-178 7,-6 11,3 16,4 5,35 12,70 24,103 2,16 6,31 20,41 22,32 46,61 73,89z"/>
   <path class="fil18" d="M2328 1205c-30,-4 -61,-10 -92,-9 -11,0 -17,-4 -19,-15 -2,-15 -5,-30 2,-45 18,3 14,21 22,31 4,5 2,14 7,20 22,1 33,-15 45,-30 2,-1 3,-3 4,-5 -1,2 -2,4 -4,5 -12,14 -22,31 -44,30 -10,-18 -13,-39 -28,-55 9,-8 19,-5 29,-5 8,2 16,9 23,-1 34,-4 69,-3 101,10 -2,10 -10,11 -18,11 -15,-1 -15,16 -26,20 -1,1 -5,1 0,3 22,12 7,23 -2,35z"/>
   <path class="fil19" d="M1712 470c-2,3 -6,5 -10,6 -26,-10 -36,-53 -19,-82 12,-9 24,-17 38,-22 10,-3 19,-6 25,-15 8,-8 15,-16 23,-22 12,-9 20,-6 22,8 3,17 7,33 1,50 -5,1 -9,2 -14,2 -1,1 -1,2 -1,4 0,1 0,2 1,2 -1,9 -2,18 -2,27 -1,3 -2,6 -4,9 -8,8 -18,12 -29,15 -21,6 -29,-4 -31,-24 0,14 17,28 0,42z"/>
   <path class="fil14" d="M1850 1389l-16 -15c-4,-17 -14,-29 -33,-30l0 0c-5,-7 -11,-13 -7,-23 6,-24 17,-46 35,-65 7,-6 12,-10 21,-6 2,2 4,3 6,5 6,9 6,19 3,30 -2,9 -1,18 3,26 -7,-26 -3,-34 17,-32 9,11 17,21 25,31 8,31 8,31 -19,48 -5,3 -8,9 -12,13 -6,7 -5,25 -23,18z"/>
   <path class="fil20" d="M1220 942c-2,1 -3,2 -5,3 -2,1 -4,2 -6,2 -3,0 -5,-1 -7,-3 -8,-12 5,-18 10,-27 -10,2 -17,6 -24,10 -5,2 -11,4 -10,9 6,15 -6,25 -8,38 -7,7 -15,12 -24,16 -6,-1 -10,-5 -11,-12 -2,-16 -4,-31 -15,-45 -5,-6 1,-13 5,-19 6,-5 13,-8 20,-10 10,4 15,-4 20,-9 26,-15 53,-29 79,-44 21,13 27,42 15,65 -11,9 -22,18 -36,23 0,2 -1,3 -3,3z"/>
   <path class="fil19" d="M672 712c-18,33 -38,65 -54,99 -14,30 -23,60 -15,94 4,6 2,11 -3,14 -5,4 -9,1 -11,-4 -11,-45 -3,-88 10,-131 7,-21 15,-43 29,-62 7,-11 20,-15 31,-21 9,-5 18,-3 13,11z"/>
   <path class="fil21" d="M1628 1215c-17,6 -21,20 -20,36 -7,0 -13,-1 -19,-5 -9,-19 -18,-38 -38,-49 -5,-3 -6,-9 -7,-15 -3,-11 -5,-22 -10,-33 -10,-24 -9,-30 15,-46 2,0 4,-1 6,-1 0,0 0,0 0,0 11,14 32,16 39,35 -3,9 -9,17 -6,29 18,-5 33,-14 48,-27 5,7 12,13 2,22 -16,15 -20,37 -10,54z"/>
   <path class="fil12" d="M1125 914c1,6 3,11 8,14 16,9 17,22 14,38 -2,7 -1,16 -1,24 -15,13 -31,25 -49,34 -5,0 -10,1 -15,-1 -6,-6 -10,-14 -12,-23 11,-16 18,-33 21,-53 1,-13 11,-20 20,-27 4,-4 9,-6 14,-6z"/>
   <path class="fil9" d="M1348 866c-19,13 -39,24 -60,33 -5,-2 -12,-5 -11,-11 3,-19 -7,-35 -8,-52 21,-15 43,-30 68,-40 15,2 23,5 17,25 -4,14 -10,29 -6,45z"/>
   <path class="fil9" d="M1067 2497c3,-3 6,-7 9,-10 -1,-12 2,-20 14,-23 10,1 14,-5 19,-13 4,-7 8,-15 18,-16 26,-7 27,-7 31,20 3,18 19,25 28,38 -32,11 -65,19 -99,24 -4,3 -7,2 -11,2 -10,-5 -12,-12 -9,-22z"/>
   <path class="fil12" d="M1406 755c-5,-3 -10,-5 -14,-8 -7,-8 1,-15 2,-22 2,-7 4,-13 10,-18 15,-3 26,-14 40,-20 5,-1 10,1 14,4 4,2 7,4 10,6 2,2 3,4 4,6 2,10 -6,18 -4,28 -5,10 5,17 6,25 -3,9 6,18 -1,27 -4,3 -7,7 -12,9 -10,2 -20,0 -30,-1 -25,-1 -31,-9 -25,-36z"/>
   <path class="fil16" d="M1683 394c1,29 7,56 19,82 -14,10 -28,18 -44,24 0,0 -2,-1 -2,-1 -5,-10 -12,-19 -17,-29 -3,-5 -7,-11 -12,-11 -9,-15 -1,-26 7,-37 15,-11 32,-20 49,-28z"/>
   <path class="fil19" d="M589 915c9,2 12,-3 14,-10 10,23 26,42 44,59 2,8 9,8 15,10l0 0c2,2 4,4 7,4 5,0 9,2 13,6 -4,2 -8,5 -13,7 -7,3 -9,9 -6,16 5,10 4,21 4,31 -2,0 -3,-1 -5,-2 -2,0 -3,-1 -4,-3l-1 0c-2,-17 -19,-16 -28,-25 -26,-26 -36,-58 -40,-93z"/>
   <path class="fil16" d="M1496 2375c-20,12 -42,20 -64,29 -7,3 -14,2 -16,-5 -4,-17 -19,-23 -31,-31 -13,-16 2,-22 11,-30 3,-3 6,-4 10,-4 17,-3 30,-1 44,11 8,7 20,11 32,13 6,2 18,3 14,17z"/>
   <path class="fil22" d="M366 1748c-18,33 -36,65 -54,98 -3,1 -4,3 -3,6 -1,6 -3,10 -6,14 -13,8 -21,3 -26,-10 2,-14 8,-27 15,-39 4,-3 5,-6 2,-10 6,-17 13,-34 23,-49 6,-2 10,-8 15,-12 11,-6 23,-13 34,2z"/>
   <path class="fil23" d="M1525 693c20,-13 42,-21 63,-31 12,-1 15,5 15,17 0,8 2,16 4,24 2,6 11,10 6,19 -7,5 -15,9 -23,12 -4,1 -7,0 -10,-2 -11,-6 -25,-31 -25,8 1,15 -20,19 -33,24 -3,-1 -5,-2 -7,-3 -3,-3 -6,-7 -7,-12 5,-17 5,-35 11,-52l0 0c2,0 4,-2 6,-4z"/>
   <path class="fil12" d="M1549 1103c-14,14 -16,29 -6,47 4,6 5,13 6,20 4,18 4,18 22,14 1,-1 3,0 5,0 9,19 13,40 13,62l-10 -2c-1,-10 -6,-17 -16,-18 -13,-2 -18,-10 -19,-22 -2,-15 -10,-20 -25,-21 -13,0 -26,0 -38,-7 5,-2 9,-3 14,-5 10,-7 29,-4 25,-25 -4,-23 5,-36 29,-43z"/>
   <path class="fil13" d="M1406 755c3,16 11,24 28,23 9,0 18,2 27,4 9,2 21,-2 26,10 -1,4 -2,8 -7,5 -16,3 -28,15 -43,19 -5,4 -14,1 -16,9 -6,5 -12,9 -19,11 -11,5 -19,1 -25,-8 -1,-9 -8,-17 -7,-27 10,-12 19,-26 26,-40 4,-2 7,-4 10,-6z"/>
   <path class="fil24" d="M1396 2338c-3,9 -11,16 -4,26 3,4 4,8 4,13 -4,7 0,14 3,20 5,8 5,15 -2,21 -11,7 -22,12 -35,15 -17,-5 -31,-12 -26,-34 8,-16 -9,-21 -14,-31 24,-10 49,-20 74,-30z"/>
   <path class="fil25" d="M2029 1764l-11 -11c4,-7 4,-11 -5,-11 -9,1 -17,2 -19,-9 10,-31 4,-62 0,-94 9,6 13,14 12,25 0,4 2,7 6,7 5,0 7,-4 8,-8 1,-5 -1,-10 -3,-14 -2,-5 -5,-10 -8,-15 -12,-23 -11,-26 14,-34 5,9 5,19 4,29 -4,4 -2,7 0,10 7,42 8,83 2,125z"/>
   <path class="fil26" d="M2334 1759c-1,1 -3,3 -4,4 -4,2 -7,4 -7,9 -13,22 -31,40 -49,58 -8,-8 -13,-21 -28,-22 -7,-1 -13,-7 -14,-16 1,-2 1,-4 2,-6 2,-2 3,-3 5,-5 7,2 10,-5 15,-8 7,-2 10,-8 15,-12 7,-2 12,-6 13,-13 3,-21 19,-26 36,-30 17,9 22,23 16,41z"/>
   <path class="fil27" d="M2339 1664l53 -75c10,2 18,-5 27,-8 9,-3 18,-11 28,-1 -5,14 -10,28 -20,40 -19,15 -38,32 -52,52 -5,7 -10,13 -19,14 -15,0 -17,-11 -17,-22z"/>
   <path class="fil16" d="M1022 318c20,-15 42,-28 64,-40 3,0 0,14 9,4 2,-4 7,-1 10,2 4,7 0,12 -3,17 -6,7 -12,14 -17,23 -6,11 -12,28 -31,19 -5,-2 -3,0 -4,2 -1,12 -12,18 -18,27 -14,12 -28,23 -44,31 -16,-14 -9,-26 4,-36 9,-7 17,-13 18,-25 1,-9 15,-12 12,-24z"/>
   <path class="fil20" d="M1402 727c-2,8 -6,14 -10,20 -33,-6 -66,-11 -99,-10 18,-19 32,-41 59,-49 1,0 3,-1 4,-1 3,-1 7,-1 10,1 17,9 28,22 36,39z"/>
   <path class="fil28" d="M1495 555c17,-3 24,-14 25,-30 6,-4 11,-11 20,-5 0,13 2,25 10,35 -26,15 -52,27 -79,38 -17,-9 -10,-32 -25,-43 -1,-9 -3,-19 -5,-29 1,-1 2,-1 4,-2 9,-4 18,1 28,-2 21,-7 30,4 24,24 -2,5 -5,9 -2,14z"/>
   <path class="fil19" d="M634 1344c13,-1 25,0 32,15 3,6 9,8 15,10 2,1 3,1 3,2 -1,1 -2,2 -2,2 -11,12 -22,24 -35,35 -16,6 -32,14 -51,11 -9,-2 -20,-3 -18,-17 14,-18 29,-33 46,-48 5,-1 6,-7 9,-10l1 0z"/>
   <path class="fil21" d="M1757 1196c-5,6 -10,10 -17,13 -8,5 -15,11 -13,21 0,7 -2,11 -7,15 -9,8 -14,7 -18,-4 -2,-7 -3,-14 -5,-21 13,-23 0,-48 5,-72 23,10 45,22 65,37 0,6 -1,13 -10,11z"/>
   <path class="fil29" d="M2348 1137c9,-1 18,-1 26,-1 6,0 11,0 15,5 5,11 4,24 17,33 7,4 5,15 -1,21 -9,8 -14,18 -22,25 -16,-4 -31,-8 -45,-14 1,-24 -5,-48 10,-69z"/>
   <path class="fil30" d="M968 1120c4,-17 8,-33 15,-50 9,-18 17,-42 -2,-62 -4,-3 -6,-8 -3,-13 4,-5 9,-2 13,0 7,3 15,7 22,10 4,6 -1,11 -2,17 -4,13 -6,27 3,40 6,7 2,14 3,21 -15,15 -32,26 -49,37z"/>
   <path class="fil5" d="M909 2542c2,-9 4,-19 5,-29 2,-10 8,-17 17,-22 6,-4 13,-5 17,2 8,13 14,8 23,1 9,-7 12,-20 21,-26 3,3 3,6 2,10 0,10 2,20 1,30 -9,12 -21,20 -32,29 -18,6 -36,5 -54,5z"/>
   <path class="fil31" d="M1741 2161c14,11 21,23 15,42 -2,8 0,18 10,22 1,1 2,2 2,3 -1,1 -1,1 -2,1 -9,7 -18,13 -29,17 0,0 -1,-1 -2,-1 -23,-6 -28,-26 -37,-43 -3,-4 -5,-8 -7,-12 16,-11 32,-21 50,-29z"/>
   <path class="fil32" d="M562 1496c-13,18 -27,34 -43,49 -17,10 -34,18 -54,14 -8,-15 3,-21 13,-26 5,-2 11,-1 15,-5 6,-5 15,-10 10,-21 -5,-10 9,-16 5,-26 9,-15 20,-28 34,-39 7,-4 13,-7 20,0 5,5 6,12 1,17 -10,13 -3,25 -1,37z"/>
   <path class="fil20" d="M1693 1220c-2,1 -4,3 -6,3 -8,2 -17,9 -23,1 -6,-8 -1,-18 2,-27 3,-6 14,-7 11,-15 -4,-9 -14,0 -23,-4 12,-19 13,-37 -6,-51 18,3 34,10 49,19 -1,8 2,16 5,24 5,18 5,35 -9,50z"/>
   <path class="fil33" d="M1037 1068c0,-12 1,-24 -6,-33 -7,-9 -3,-16 2,-23 7,-11 14,-23 19,-37 4,-10 5,-20 0,-30 7,-5 15,-9 24,-11 11,-1 14,5 13,15 -1,14 -3,28 -12,39 -7,8 -7,13 -2,20 -7,13 -9,28 -13,41 -7,8 -15,14 -25,19z"/>
   <path class="fil32" d="M1850 1250c-11,10 -15,27 -31,33 -7,3 -7,11 -8,17 0,8 0,17 -6,23 -7,-4 -18,4 -24,-6 -5,-13 -2,-24 7,-35 5,-6 10,-13 10,-21 1,-11 1,-21 -11,-27 -2,-2 -3,-4 -3,-7 -2,-11 2,-18 12,-22 20,12 38,28 54,45z"/>
   <path class="fil7" d="M578 1402c13,8 28,6 43,4 9,-1 17,-3 26,2 -20,22 -41,44 -63,65 -12,-1 -32,7 -18,-20 8,-13 -12,-15 -12,-26 7,-9 14,-18 24,-25z"/>
   <path class="fil34" d="M1288 1117c-18,-3 -33,-13 -49,-20 13,-6 26,-12 39,-15 11,2 21,3 30,10 2,0 3,-1 5,-1 31,-14 31,-14 29,21 1,12 -2,22 -16,26 -20,7 -26,-12 -38,-21z"/>
   <path class="fil35" d="M1377 802c3,6 7,13 10,19 -9,14 -22,25 -30,39 -3,2 -6,4 -9,6 -12,-4 -15,-11 -9,-22 2,-5 8,-12 -1,-14 -19,-4 -12,-10 -2,-15 15,-7 6,-13 1,-19l0 0c2,-1 4,-3 5,-5 14,-9 29,-18 45,-25 14,7 8,16 0,22 -6,4 -11,6 -10,14z"/>
   <path class="fil36" d="M1519 697c15,18 6,34 -4,50 -14,4 -27,-16 -42,-2 -7,-2 -11,-6 -12,-13 2,-10 3,-19 5,-29 -6,-7 -12,-13 -17,-20 -8,-10 -6,-18 8,-21 13,6 23,16 31,27 9,12 18,14 31,8z"/>
   <path class="fil19" d="M554 1427c11,1 21,-1 31,3 10,3 11,9 4,16 -6,6 -12,10 -18,15 2,8 10,8 13,12 -6,9 -13,17 -22,23 -8,3 -17,7 -30,12 6,-12 21,-17 6,-29 -4,-4 7,-10 11,-15 9,-12 9,-13 -7,-22 3,-6 7,-11 12,-15z"/>
   <path class="fil37" d="M1417 283c-10,-15 -11,-32 -10,-49 23,17 38,40 49,66 7,16 7,33 0,51 -14,-8 -17,-22 -25,-33 0,-1 1,-2 1,-3 4,-15 -8,-23 -15,-32z"/>
   <path class="fil32" d="M781 565c4,1 9,0 14,-1 -12,15 -25,28 -39,40 -9,1 -16,4 -14,15 -4,7 -9,14 -16,19 -15,-4 -27,-12 -29,-29 10,-15 20,-28 33,-40 1,0 2,1 3,1 17,6 32,0 48,-5z"/>
   <path class="fil9" d="M1461 732c5,2 10,4 14,6 20,-4 31,11 45,19l0 0c11,2 4,14 11,19 3,4 3,10 3,15 0,1 -1,2 -2,3 -1,0 -2,1 -3,1 -14,-1 -27,0 -40,-3 -1,0 -3,0 -4,-1 -9,0 -17,-3 -24,-9 3,-2 7,-4 10,-6 5,-8 -7,-12 -5,-19 -14,-13 -14,-13 -5,-25z"/>
   <path class="fil38" d="M1426 989c14,4 28,3 42,1 13,-2 18,5 11,16 -7,10 -2,22 -8,31 -10,0 -10,-8 -13,-13 -6,-8 -11,-8 -15,0 -8,17 -24,18 -39,22 -3,0 -7,-1 -7,-6 0,-1 2,-3 4,-5 1,-1 3,-1 5,-1 27,-7 27,-7 17,-34 -1,-2 -1,-4 -2,-7 2,-1 4,-3 5,-4z"/>
   <path class="fil39" d="M272 1955c-7,37 -13,75 -14,113 -7,5 -11,-1 -15,-5 -2,-45 1,-90 15,-133 9,-4 11,1 12,9 1,5 -3,11 2,16z"/>
   <path class="fil18" d="M2458 1195c3,1 4,3 4,5 2,4 2,8 4,11 15,36 15,36 -24,49l0 -1c-2,-1 -4,-3 -5,-4 -7,-4 -12,-8 -17,-14 4,-10 1,-19 -4,-28 6,-12 5,-24 3,-37 -2,-8 -5,-15 7,-15 14,9 24,20 32,34 -3,2 -5,3 -9,4 4,-1 6,-2 9,-4z"/>
   <path class="fil24" d="M1495 555c-5,0 -11,0 -17,-3 -2,-9 18,-12 8,-23 -15,8 -15,8 -41,-10 19,-11 39,-22 60,-29 -2,11 -5,22 3,32 6,7 3,13 -2,20 -4,4 -7,8 -11,13z"/>
   <path class="fil38" d="M1071 1008c-18,-8 -19,-9 -8,-22 13,-15 16,-33 13,-52 12,-5 23,-10 35,-14 -4,9 -8,19 -9,30 -2,21 -10,39 -25,54l-1 2c0,1 -1,2 -3,3l-2 -1z"/>
   <path class="fil27" d="M341 1712c10,-23 24,-44 39,-64 5,-1 9,1 14,2 24,8 25,16 7,35 -3,2 -6,4 -8,8 -1,2 -3,4 -4,6 -13,7 -10,31 -31,31 -7,-5 -19,-4 -17,-18z"/>
   <path class="fil40" d="M1160 239c0,2 0,5 1,7 5,18 9,19 24,8 12,-9 12,-9 19,5 4,11 -3,18 -9,25 -7,6 -16,9 -25,10 -11,-5 -28,13 -36,-8 1,-10 5,-18 4,-28 1,-2 1,-5 2,-7 0,-1 0,-2 0,-3 6,-5 13,-8 20,-9z"/>
   <path class="fil32" d="M1712 470c0,-12 -4,-22 -9,-33 -6,-11 -7,-23 -4,-36 1,-6 5,-11 11,-11 7,-1 11,4 11,10 1,12 10,21 5,35 -4,9 10,13 17,17 -9,9 -20,12 -31,18z"/>
   <path class="fil41" d="M1531 776c-5,1 -7,-1 -8,-6 -1,-4 -2,-8 -3,-13 4,-1 8,-2 12,-3 15,-6 17,-10 14,-26 -2,-6 -4,-12 -5,-19 -1,-5 1,-10 6,-12 4,-2 8,0 11,3 13,9 22,22 32,34 -5,4 -10,6 -16,8l0 0c-11,6 -21,12 -31,18 -7,3 -13,7 -12,16z"/>
   <path class="fil26" d="M2339 1664c6,5 11,12 19,15 6,2 14,0 16,8 2,10 -3,18 -6,27 -5,11 -12,20 -21,29 -5,2 -11,0 -12,-5 -2,-14 -15,-18 -25,-25 -2,-3 -2,-6 -2,-10 9,-14 20,-27 31,-39z"/>
   <path class="fil42" d="M1496 2375c-29,-11 -54,-30 -85,-35 -2,-1 -3,-4 -5,-6 9,-7 20,-11 31,-13 8,13 20,21 35,25 18,6 35,12 54,14 -9,7 -19,12 -30,15z"/>
   <path class="fil43" d="M1879 1279c-10,7 -9,17 -9,26 -1,11 1,22 -3,32 -2,5 -6,11 -12,9 -9,-1 -6,-8 -4,-13 1,-4 3,-9 2,-12 -12,-23 -2,-44 3,-66 9,7 16,15 23,24z"/>
   <path class="fil27" d="M1032 372c4,-17 16,-32 11,-52 13,1 10,14 20,18 12,-11 17,-31 33,-40 4,-2 7,0 9,3 4,10 -3,19 -4,28l-69 43z"/>
   <path class="fil44" d="M2431 1521c7,-20 16,-40 26,-59 14,-7 26,-9 30,11 -2,12 -4,24 -10,34 -9,5 -19,9 -27,15 -7,5 -13,7 -19,-1z"/>
   <path class="fil32" d="M988 343c7,-8 16,-13 24,-18 10,6 0,15 3,22 -24,16 -32,43 -46,66 -20,2 -29,-13 -40,-26 10,-10 21,-19 34,-25 13,0 21,-7 25,-19z"/>
   <path class="fil45" d="M1186 2493c-21,-3 -30,-18 -35,-36 -5,-17 -5,-17 -25,-14 -5,-7 1,-10 5,-15 12,-5 25,-9 38,-10 5,-3 10,-2 16,-1 10,9 9,20 2,30 -9,6 -13,12 -4,22 6,6 14,13 7,23 -1,1 -3,1 -4,1z"/>
   <path class="fil37" d="M1347 205c-4,1 -9,2 -12,7 -5,9 -12,13 -22,6 -6,-4 -10,2 -15,3 -14,5 -28,12 -44,5 0,-9 7,-7 11,-8 4,-1 9,-2 8,-7 -1,-6 -7,-6 -11,-7 28,-7 57,-8 85,1z"/>
   <path class="fil46" d="M2426 1161c-3,9 0,18 3,26 3,11 1,20 -7,29 0,0 1,1 1,2 0,2 1,4 0,6 0,1 -1,2 -1,3 -1,1 -3,2 -4,3 -1,0 -2,0 -3,1 -3,0 -5,1 -8,3 -5,-3 -11,-4 -14,-9 -4,-10 -3,-17 6,-25 12,-9 11,-20 0,-30 -9,-8 -10,-17 -6,-28 13,4 24,10 33,19z"/>
   <path class="fil26" d="M1634 422c0,11 0,23 0,34 6,7 6,13 0,20 0,7 1,14 2,21 -15,4 -22,-2 -24,-16 -1,-8 -3,-16 -1,-24 2,-8 1,-15 -3,-21 7,-7 16,-11 26,-14z"/>
   <path class="fil5" d="M781 2536c32,9 62,9 88,-16 3,-3 7,-5 11,-6 6,-2 13,-1 16,6 2,6 -2,11 -7,14 -4,3 -15,-1 -10,11 -39,1 -77,5 -115,-3 6,-1 12,-2 17,-6z"/>
   <path class="fil47" d="M2348 1137c1,23 -3,46 -10,69 -3,-1 -6,-1 -10,-1 -3,-8 4,-14 2,-22 -8,-7 -20,1 -28,-5 0,-8 7,-9 11,-12 10,-6 19,-12 20,-26 1,-10 8,-7 15,-3z"/>
   <path class="fil48" d="M2393 1142c2,10 6,20 12,28 9,12 11,23 0,35 -5,5 -8,13 -12,20l0 0c-3,-3 -7,-2 -10,-4l0 -1c0,-9 0,-19 10,-26 5,-3 11,-9 5,-16 -6,-6 -12,0 -17,4 -4,2 -6,5 -13,4 5,-17 20,-28 21,-45 1,-1 3,0 4,1z"/>
   <path class="fil49" d="M431 1576c6,-12 14,-22 24,-31 6,1 7,6 8,10 7,9 16,2 24,4 6,0 14,-5 14,7 -6,10 -12,18 -21,24 -22,8 -38,3 -49,-14z"/>
   <path class="fil50" d="M1333 259c9,-4 19,-8 28,-12 15,-7 22,-4 29,10 5,9 7,18 6,28 -20,-10 -41,-17 -63,-22 -4,-1 -4,-3 0,-4z"/>
   <path class="fil45" d="M1539 900c-13,1 -27,-2 -40,-6 3,-16 16,-30 12,-48 2,-2 3,-3 6,-2 5,3 10,10 18,6 2,0 4,0 6,0 5,17 1,33 -2,50z"/>
   <path class="fil51" d="M2368 1684c-3,1 -7,5 -10,3 -3,-2 -1,-5 0,-8 4,-3 7,-7 7,-12 1,-5 1,-10 5,-11 19,-8 32,-25 47,-38 4,-4 8,-3 10,2 -4,8 -8,17 -15,24 -8,11 -16,21 -25,32 -5,5 -9,13 -19,8z"/>
   <path class="fil9" d="M1190 2492c-9,-9 -18,-19 -25,-30 -3,-6 -10,-13 -3,-20 5,-6 12,-1 18,1 17,9 25,28 40,40 -10,5 -20,7 -30,9z"/>
   <path class="fil38" d="M1269 836c17,11 26,26 19,47 -2,5 -1,11 0,16 -3,2 -6,4 -10,5 -12,-7 -20,-17 -18,-32 1,-11 -11,-14 -13,-22 6,-7 14,-11 22,-14z"/>
   <path class="fil52" d="M386 1639c5,-11 12,-20 20,-29 17,9 34,-1 50,-1 2,2 4,4 4,6 -11,18 -23,34 -38,50 -15,-5 -28,-12 -36,-26z"/>
   <path class="fil37" d="M1333 259c0,1 0,3 0,4 -28,0 -57,1 -84,5 -5,-16 10,-19 18,-19 12,0 21,-2 29,-10 7,-6 14,-5 14,5 1,16 12,15 23,15z"/>
   <path class="fil53" d="M1141 284c6,4 13,3 21,2 6,-1 9,2 8,8 -21,11 -43,22 -64,33 -11,-15 8,-28 3,-43 3,-5 6,-10 13,-11 9,0 13,6 19,11z"/>
   <path class="fil16" d="M455 1615c-9,6 -17,14 -28,19 -12,5 -15,3 -17,-10 -1,-5 -3,-9 -4,-14l0 0c2,-2 3,-4 4,-6 1,-2 1,-3 3,-4 12,-6 22,-17 39,-8 14,7 15,13 3,23z"/>
   <path class="fil54" d="M2314 1708c9,5 15,0 22,-5 5,-4 11,-4 16,1 4,4 2,9 -1,13 -6,8 -9,16 -4,26 -3,6 -7,12 -13,16 -4,-13 -12,-25 -20,-36 -5,-5 -5,-10 0,-15z"/>
   <path class="fil55" d="M647 687c2,-7 6,-13 11,-19 10,-6 17,-17 27,-20 9,-4 24,-15 27,7 -9,12 -18,25 -26,38 -9,7 -20,2 -29,6 -6,2 -13,-3 -10,-12z"/>
   <path class="fil28" d="M1416 534c1,12 7,26 -15,24 -5,-1 -6,4 -6,9 0,4 1,9 0,14 0,3 -2,7 -5,7 -4,2 -6,-1 -8,-4 -5,-8 -10,-16 -15,-25l0 1c1,-2 3,-3 5,-4 14,-8 28,-17 44,-22z"/>
   <path class="fil46" d="M1949 1521c12,-14 16,-32 26,-47 7,1 10,7 8,11 -11,21 -8,44 -12,66 -1,3 -2,7 -3,10 -7,-13 -14,-26 -19,-40z"/>
   <path class="fil56" d="M2442 1260c2,-6 4,-11 5,-16 2,-7 4,-10 12,-6 10,4 10,-3 8,-10 -3,-9 -6,-18 -5,-28 13,16 21,34 25,53 -8,23 -24,16 -40,12 -2,-2 -3,-4 -5,-5z"/>
   <path class="fil52" d="M949 1038c-1,-8 -1,-16 -1,-24 0,-16 -5,-27 -21,-31 11,-6 24,-8 36,-9 -3,24 6,47 11,69 -9,0 -17,-2 -25,-5z"/>
   <path class="fil9" d="M992 2477c0,-3 0,-6 0,-9 5,5 9,12 14,17 12,13 12,13 -1,26 -8,9 -18,17 -27,25 -5,0 -10,1 -15,1 6,-12 9,-26 25,-30 6,-9 -2,-21 4,-30z"/>
   <path class="fil20" d="M1180 644c12,16 12,16 2,30 -6,7 -10,16 -12,25 -2,8 -6,11 -14,8 -14,-8 -4,-18 -3,-28 0,-12 9,-20 12,-31 4,-4 9,-5 15,-4z"/>
   <path class="fil57" d="M1594 1137c-11,-1 -19,-8 -29,-12 -11,-5 -14,-12 -10,-23 21,1 41,5 60,14 -12,1 -17,10 -21,21z"/>
   <path class="fil19" d="M711 1013c5,6 2,14 6,20 6,-1 7,-5 9,-9 1,-4 1,-9 6,-9 5,0 7,4 9,8 3,4 3,10 -1,13 -8,6 -17,11 -18,22l-6 -1c-12,-8 -23,-17 -39,-14l0 0c1,-10 6,-18 17,-19 7,-2 14,-4 18,-11l-1 0z"/>
   <path class="fil24" d="M2226 1861c-3,-13 1,-24 9,-34 2,-6 4,-11 10,-13 8,-3 16,-3 21,4 8,12 -5,19 -7,29 -7,9 -14,18 -24,24 -7,0 -8,-5 -9,-10z"/>
   <path class="fil58" d="M707 1284c-7,9 -14,17 -20,25l0 0c6,3 6,8 1,11 -12,9 -25,16 -40,10 13,-17 29,-32 45,-46 4,0 9,0 14,0l0 0z"/>
   <path class="fil59" d="M2497 1294c5,14 5,29 4,44 -5,6 -11,11 -19,6 -2,-19 -9,-37 -16,-54 13,-18 21,-2 31,4z"/>
   <path class="fil31" d="M1781 2137c-4,11 -4,20 5,29 8,7 12,17 7,30 -15,-4 -25,-12 -28,-26 -3,-9 -8,-13 -18,-13 11,-8 22,-15 34,-20z"/>
   <path class="fil56" d="M712 655c-11,-5 -20,1 -29,6 -8,4 -15,10 -25,7 6,-12 13,-25 23,-35 23,-12 29,-11 40,11 -1,5 -4,8 -9,11z"/>
   <path class="fil52" d="M455 1615c3,-14 -7,-16 -16,-16 -9,1 -17,3 -26,1 4,-9 10,-17 18,-24l49 14c-5,10 -11,18 -20,25 -1,0 -3,0 -5,0z"/>
   <path class="fil19" d="M1978 2053c-19,20 -37,23 -59,-5 4,-5 9,-8 14,-10 8,-3 16,-8 26,-3 4,2 8,6 12,7 4,1 6,4 7,8 0,1 0,2 0,3z"/>
   <path class="fil40" d="M968 412c5,-29 19,-53 45,-69 1,-2 2,-2 4,0 6,12 -3,19 -11,23 -15,9 -20,21 -18,37 -5,7 -11,12 -19,15 -2,-1 -2,-2 -2,-4 0,-1 0,-2 1,-2z"/>
   <path class="fil56" d="M647 687c4,2 8,4 11,2 10,-5 19,-1 28,4 -4,7 -8,14 -14,19 -1,-2 -4,-5 -6,-3 -11,9 -25,10 -38,13 4,-13 11,-24 19,-35z"/>
   <path class="fil60" d="M2447 1580c-12,5 -24,7 -35,15 -8,5 -16,3 -20,-6 0,-1 1,-3 2,-4 1,-2 2,-3 3,-5l0 0c4,-2 2,-7 6,-9l0 0c10,-6 20,-11 32,-14 10,-2 22,-5 17,13 -2,4 -3,7 -5,10z"/>
   <path class="fil49" d="M2259 1847c0,-3 -2,-6 -1,-7 6,-14 -1,-18 -13,-18 -14,-7 -24,-14 -10,-29 8,5 17,8 27,9 16,1 16,2 13,19 -1,3 -1,6 -1,9 -4,7 -9,12 -15,17z"/>
   <path class="fil53" d="M2314 1708c0,5 0,10 0,15 -3,4 -5,9 -10,10 -11,2 -15,9 -16,19 0,9 -4,17 -14,20 -13,-9 -4,-19 0,-29 11,-14 21,-28 34,-40 2,2 4,4 6,5z"/>
   <path class="fil39" d="M1131 2428c-2,5 -4,10 -5,15 -10,9 -14,21 -18,34 -1,5 -5,9 -10,6 -5,-2 -3,-7 -2,-11 -15,-9 2,-22 -4,-33l-1 -2c12,-6 26,-7 40,-9z"/>
   <path class="fil61" d="M2452 1570c-5,-9 -12,-6 -20,-4 -12,-8 -4,-19 -4,-29 16,-8 26,-29 48,-26 -5,21 -14,40 -24,59z"/>
   <path class="fil20" d="M1515 846c-1,0 -3,0 -4,0 0,-2 -1,-4 -1,-5 0,-16 -3,-30 -21,-34 -1,-2 -3,-3 -4,-5 16,-13 33,-10 50,-1l0 0c2,3 2,7 4,10 2,13 2,26 2,39 -1,0 -2,1 -2,1 -11,10 -18,2 -24,-5z"/>
   <path class="fil62" d="M1457 662c-9,20 8,28 19,40 -4,0 -7,1 -10,1 -2,0 -4,0 -5,0 -2,-2 -3,-3 -5,-5 -3,-2 -6,-4 -9,-6 -21,-2 -21,-20 -25,-34 -1,-5 -2,-10 0,-15 13,4 25,10 35,19z"/>
   <path class="fil63" d="M1357 860c0,-3 0,-6 0,-9 2,-25 4,-26 30,-30 3,7 8,12 15,15 -14,10 -28,19 -45,24z"/>
   <path class="fil51" d="M1693 1220c5,-17 6,-33 0,-50 -2,-8 -7,-18 4,-24 2,1 4,1 5,2 3,7 5,14 7,21 6,19 6,37 -12,51 -1,0 -3,0 -4,0z"/>
   <path class="fil64" d="M1170 974c-5,-15 -1,-39 10,-55 21,-4 15,18 24,25 2,0 4,0 5,0 2,1 2,2 2,3 -1,1 -1,2 -2,2 -1,0 -1,1 -3,1 -3,0 -5,2 -6,4l0 0c-3,3 -8,2 -10,6l0 -1c-2,1 -3,3 -5,5l0 0c-2,2 -3,3 -5,4 -3,2 -7,4 -10,6z"/>
   <path class="fil65" d="M2235 1793c0,10 5,20 10,29 -4,1 -7,3 -10,5 -13,4 -26,9 -36,-6 10,-14 23,-24 35,-35 1,2 1,4 1,7z"/>
   <path class="fil42" d="M1247 850c20,12 24,34 31,54 -5,6 -11,10 -19,12 -7,-21 -4,-45 -15,-65 1,-1 2,-1 3,-1z"/>
   <path class="fil66" d="M1865 1363c4,-5 8,-11 14,-12 20,-3 25,-16 24,-34 0,-3 1,-5 1,-7 9,8 16,17 21,28 -10,-1 -14,6 -18,12 -6,9 -12,16 -22,18 -7,1 -15,4 -20,-5z"/>
   <path class="fil51" d="M366 1748c-10,-1 -19,1 -27,7 -7,6 -14,8 -22,3 3,-10 7,-18 14,-26 6,-3 12,-9 20,-9 3,1 5,1 8,2 5,1 10,1 11,8 0,4 -2,8 -2,11 -1,2 -1,3 -2,4z"/>
   <path class="fil44" d="M1599 712c-6,-9 -8,-19 -7,-29 1,-8 0,-15 -4,-21 7,-6 17,-9 26,-12 10,14 4,30 6,45 -2,12 -13,12 -21,17z"/>
   <path class="fil67" d="M1994 1733c17,9 21,-8 31,-19 3,16 6,29 -7,39 -15,-10 -30,0 -46,1 1,-12 11,-10 16,-15 2,-2 4,-4 6,-6z"/>
   <path class="fil49" d="M1765 1320c-7,-2 -13,-6 -18,-11 -2,-8 -7,-11 -15,-9 -2,-1 -4,-1 -6,-2 -1,-1 -3,-2 -4,-4l0 1c-2,-3 -3,-6 -4,-10 1,-3 2,-6 5,-9 1,-1 3,-3 5,-5 3,-2 6,-3 10,-3 8,4 17,2 24,7 16,10 21,24 18,42 -4,6 -9,5 -15,3z"/>
   <path class="fil63" d="M1185 2418c-5,0 -11,0 -16,0 14,-7 30,-10 45,-13 -9,18 -5,39 -9,58 -25,-7 -15,-29 -20,-45z"/>
   <path class="fil68" d="M514 2483c6,-5 9,-11 7,-19 -1,-13 5,-21 16,-23 5,0 10,1 9,6 -2,9 -6,18 -4,29 1,4 -11,6 -16,10 0,0 -1,1 -2,1 -3,-1 -7,-3 -10,-4z"/>
   <path class="fil51" d="M386 1639c16,3 26,15 36,26l-3 4c-1,2 -2,3 -3,5 -4,7 -8,14 -15,20 -2,1 -4,3 -5,6l1 -1c-6,3 -11,3 -11,-6 0,-1 0,-3 0,-4 3,-3 2,-8 5,-10 6,-1 14,-1 15,-9 1,-7 -6,-8 -11,-11 -6,-2 -11,-6 -15,-11 1,-3 3,-7 6,-9z"/>
   <path class="fil69" d="M1205 1245c-6,-21 -22,-23 -42,-21 10,-11 21,-13 32,-13 8,0 14,5 17,12 3,7 5,14 7,21 -5,1 -9,1 -14,1z"/>
   <path class="fil51" d="M2476 1511c-6,2 -12,4 -15,9 -6,12 -18,15 -29,21 1,6 -2,11 -8,12 -5,0 -8,-2 -7,-7 4,-9 7,-18 14,-25 11,-5 21,-11 32,-16 5,-2 10,-5 14,2 0,2 0,3 -1,4z"/>
   <path class="fil70" d="M716 1339c-12,-20 -7,-34 15,-45 6,8 1,18 5,25 -5,8 -12,15 -20,20z"/>
   <path class="fil71" d="M564 2502c4,-14 4,-14 -1,-38 19,4 24,9 23,26 0,7 -1,14 2,21 -9,-1 -17,-4 -24,-9z"/>
   <path class="fil72" d="M277 1856c9,4 17,7 26,10 -3,13 -7,24 -15,35 -19,6 -12,-14 -19,-20 1,-9 3,-17 8,-25z"/>
   <path class="fil73" d="M1219 747c-2,-11 -2,-19 14,-18 17,1 35,1 52,9 -22,5 -44,7 -66,9z"/>
   <path class="fil38" d="M1067 2497c3,7 6,13 9,19 -1,3 -2,4 -4,5 -4,0 -7,0 -10,1 -1,-9 -2,-16 -10,-22 -15,-12 -14,-22 4,-36 5,10 -2,25 11,33z"/>
   <path class="fil74" d="M1126 279c-4,3 -7,7 -10,10 0,10 -3,17 -15,15 -2,-2 -3,-4 -5,-6 2,-5 3,-10 5,-14 -5,-5 -1,-10 0,-16 8,-6 18,-12 29,-15 13,15 13,19 -4,26z"/>
   <path class="fil19" d="M741 1062c-1,-9 5,-11 12,-13 12,-4 23,-9 34,-18 11,-9 11,5 13,12 -10,18 -26,23 -46,20 -4,0 -9,-1 -13,-1z"/>
   <path class="fil75" d="M1801 1344c8,-4 13,-16 25,-10 10,6 10,17 9,28 0,4 0,8 -1,12 -12,-9 -24,-18 -33,-30z"/>
   <path class="fil52" d="M1387 2374c1,-3 3,-7 5,-10 15,7 29,13 32,32 1,3 5,5 8,8 -8,5 -16,8 -25,10 -5,-14 -18,-24 -20,-40z"/>
   <path class="fil31" d="M754 1063c9,-1 18,-4 25,-10 6,-6 13,-10 21,-10l0 0c9,5 21,7 21,20 -22,6 -44,5 -67,0z"/>
   <path class="fil76" d="M2368 1684c15,-13 30,-27 44,-40 -10,26 -27,48 -44,70 0,-10 0,-20 0,-30z"/>
   <path class="fil77" d="M1446 550c12,-3 19,-1 20,13 0,10 2,20 5,30 -2,1 -3,1 -5,2 -17,-10 -21,-26 -20,-45z"/>
   <path class="fil78" d="M2250 1191c-15,-9 -18,-25 -24,-39 -3,-5 -4,-10 -7,-16 1,-1 2,-3 2,-4 24,10 28,31 29,54 3,1 3,3 0,5z"/>
   <path class="fil24" d="M1328 2418c-18,-9 -21,-27 -25,-44 1,0 3,-1 5,-1 15,2 33,0 34,23 -3,9 -5,18 -14,22z"/>
   <path class="fil79" d="M1796 1205c-2,8 -3,17 -5,25 -16,12 -23,4 -26,-12 -2,-6 -1,-12 0,-19 2,-4 3,-9 7,-12 9,5 17,10 24,18z"/>
   <path class="fil80" d="M461 1556c-2,-4 -4,-7 -6,-11 5,-9 11,-18 19,-24 6,-3 12,-3 18,-2 3,1 4,2 6,3 1,2 2,4 2,6 0,1 0,2 0,3 -4,6 -9,9 -16,10 -9,2 -14,8 -19,15 -1,2 -3,2 -4,0z"/>
   <path class="fil81" d="M949 1038c9,0 17,-1 25,5 2,9 1,16 -4,23 -4,5 -8,9 -14,8 -7,-2 -7,-8 -8,-14 2,-2 4,-4 7,-7 2,-2 7,-5 4,-8 -2,-3 -7,-2 -11,-2 0,-2 1,-3 1,-5z"/>
   <path class="fil77" d="M1387 2374c14,10 20,23 20,40 -3,4 -6,5 -10,4 -1,-13 -7,-23 -18,-30 -5,-3 -11,-7 -6,-14 4,-4 9,-1 14,0z"/>
   <path class="fil82" d="M1865 1363c7,0 14,1 20,5 -7,13 -12,26 -16,40 -7,-5 -14,-11 -19,-19 11,-5 10,-17 15,-26z"/>
   <path class="fil50" d="M1308 1092c-17,11 -17,11 -30,-10 7,-5 14,-9 23,-10 4,-2 9,-1 12,-5l-1 0c6,9 -3,17 -4,25z"/>
   <path class="fil19" d="M821 1063c-10,-3 -16,-11 -21,-20 11,-2 14,-12 17,-23 14,15 14,28 8,43l-2 1 -2 -1z"/>
   <path class="fil56" d="M633 1344c3,7 6,13 9,20 3,5 5,11 -1,15 -6,5 -14,5 -21,1 -3,-2 -3,-5 -1,-8 2,-6 8,-11 5,-18 2,-4 5,-8 9,-10z"/>
   <path class="fil69" d="M1461 1229c-2,-6 -4,-12 -5,-19 0,-1 0,-3 0,-4 0,-5 -1,-11 4,-13 5,-1 7,5 10,8 5,0 10,0 13,5 6,7 19,11 7,23 -2,1 -4,1 -5,2 -8,0 -16,0 -24,-2z"/>
   <path class="fil59" d="M1895 2148c-5,-11 -17,-15 -26,-24 8,-9 16,-5 23,-2 9,4 17,10 27,10 -7,7 -15,12 -24,16z"/>
   <path class="fil83" d="M1613 698c0,-16 1,-32 1,-48 6,-2 8,2 10,7 4,16 7,33 3,50 -8,3 -14,2 -14,-9z"/>
   <path class="fil84" d="M2487 1473c-9,-7 -19,-8 -30,-11 0,-4 2,-7 5,-10 7,-6 10,-16 18,-21 2,0 5,0 7,0 3,1 6,4 8,6 -2,12 -2,24 -8,36z"/>
   <path class="fil85" d="M1489 807c10,0 19,0 29,1 5,0 8,4 5,10 -4,8 -9,15 -13,23 -7,-12 -14,-23 -21,-34z"/>
   <path class="fil86" d="M2482 1438c-5,8 -12,12 -20,14 0,-2 0,-4 0,-5 2,-3 2,-7 4,-10 5,-16 10,-33 14,-50 20,-1 14,14 16,24 -1,2 -2,4 -3,7 -3,7 -10,12 -11,20z"/>
   <path class="fil87" d="M1407 234c-11,4 -21,3 -29,-5 -10,-9 -24,-12 -30,-24 23,2 42,13 59,29z"/>
   <path class="fil88" d="M2417 1546c7,4 11,-2 15,-5 13,8 -1,17 0,25 -8,10 -19,7 -29,5 3,-9 8,-17 14,-25z"/>
   <path class="fil89" d="M790 1194c0,11 -4,19 -13,25 -4,3 -10,5 -11,9 -3,16 -14,14 -26,12 15,-18 31,-33 50,-46z"/>
   <path class="fil58" d="M2491 1418c0,-12 -2,-22 -11,-31 1,-6 2,-12 2,-19 4,-8 7,-18 19,-10l0 0c2,2 2,4 1,6 -1,11 -1,23 -2,34 -4,6 1,14 -3,20l0 0c-2,2 -4,2 -6,0z"/>
   <path class="fil90" d="M461 1556c1,0 3,0 4,0 18,-4 35,-11 54,-11 -5,9 -11,16 -18,21 -13,-5 -30,5 -40,-10z"/>
   <path class="fil91" d="M2156 1862c4,7 4,15 3,24 0,10 1,20 6,29 -10,2 -14,-2 -15,-9 -2,-11 -4,-21 -9,-30 3,-7 9,-11 15,-14z"/>
   <path class="fil90" d="M2447 1265c13,-5 28,-3 40,-12 5,8 7,17 8,25 -4,6 -10,6 -16,4 -3,0 -6,0 -8,1 -2,0 -4,0 -6,0 -2,-1 -3,-2 -5,-3 -6,-4 -10,-9 -13,-15z"/>
   <path class="fil92" d="M1765 1320c4,-2 8,-4 12,-6 3,-3 7,-3 10,0 8,0 15,1 18,9 -4,7 -4,14 -4,21 -14,-5 -25,-15 -36,-24z"/>
   <path class="fil93" d="M272 1955c-5,2 -9,2 -10,-5 0,-7 0,-14 -4,-20 0,-7 -1,-14 4,-21 10,-3 17,1 21,11l-6 20c-2,3 -2,8 -4,11 0,1 0,3 -1,4z"/>
   <path class="fil94" d="M721 644c-11,-12 -26,-10 -40,-11 3,-9 10,-17 16,-24 11,9 23,16 29,29 -1,2 -3,4 -5,6z"/>
   <path class="fil95" d="M1185 2418c6,15 6,33 20,45 8,6 19,7 24,18 -3,1 -6,1 -9,2 -16,-11 -33,-21 -40,-40 6,-8 2,-17 5,-25z"/>
   <path class="fil96" d="M1328 2418c0,-8 4,-14 10,-20 3,-3 6,-3 9,0 -9,18 9,24 15,35 0,0 0,0 0,0 -2,3 -6,2 -9,4l-6 1c-6,-6 -16,-10 -19,-20z"/>
   <path class="fil97" d="M1727 1289c-2,2 -4,4 -5,6 -16,-5 -30,-12 -44,-20 2,-6 7,-8 13,-8 14,3 34,-13 41,13 0,1 -1,3 -1,4 -1,2 -2,4 -4,5z"/>
   <path class="fil98" d="M1623 1255c6,-3 9,-8 14,-13 8,-10 13,-9 16,3 2,7 3,14 4,21 -12,-2 -23,-5 -34,-11z"/>
   <path class="fil63" d="M1377 802c-14,-11 -14,-14 -1,-19 7,-4 17,-5 11,-17 2,-3 6,-4 9,-5 2,18 0,33 -19,41z"/>
   <path class="fil99" d="M1228 1101c4,5 7,11 11,16 -3,7 -9,6 -15,5 -11,0 -24,8 -29,-10 10,-5 21,-9 33,-11z"/>
   <path class="fil50" d="M283 1920c-7,-3 -14,-7 -21,-11 2,-9 4,-19 7,-28 9,3 12,14 19,20 0,2 0,3 -1,5 -3,3 -2,7 -3,11 0,1 -1,2 -1,3z"/>
   <path class="fil76" d="M2274 1743c0,10 0,20 0,29 -4,10 -11,9 -19,5 -5,-1 -3,-6 -4,-9 6,-9 14,-18 23,-25z"/>
   <path class="fil100" d="M1280 2463c-6,-1 -14,2 -20,-7 15,-9 29,-13 43,0 -7,3 -15,7 -23,7z"/>
   <path class="fil60" d="M1347 2398c-3,0 -6,0 -9,0 -4,-16 -20,-16 -30,-25 3,-4 8,-4 14,-5 17,2 26,12 25,30z"/>
   <path class="fil51" d="M1062 1049c-5,-15 -7,-30 9,-41 0,0 0,0 0,0 2,-1 4,-3 5,-4 0,0 1,0 1,0 7,2 7,9 9,14 -6,8 -10,16 -15,25 -3,2 -6,4 -9,6z"/>
   <path class="fil101" d="M386 1693c4,2 7,4 11,6 -2,6 -5,11 -10,15 -4,1 -3,7 -6,9l0 0c-2,2 -3,4 -4,6l0 -1c-3,2 -5,8 -10,5 -4,-2 -7,-3 -11,-5l-1 -3c0,0 1,-1 2,-2 6,-2 11,-6 13,-12 3,-8 8,-14 16,-18z"/>
   <path class="fil60" d="M1195 284c0,-9 3,-18 9,-25 8,-4 16,-8 24,-10 10,-3 8,4 6,10 -10,10 -23,16 -34,24 -2,0 -4,1 -5,1z"/>
   <path class="fil102" d="M1771 427c-4,1 -9,5 -13,1 -5,-5 0,-9 3,-13 3,-4 7,-8 11,-12 -2,-7 -3,-13 5,-15 6,0 11,2 15,5 1,2 1,3 0,4 -6,7 -8,16 -13,23 -2,3 -4,6 -8,7z"/>
   <path class="fil103" d="M1101 268c3,5 2,11 0,16 -11,6 -18,19 -36,20 7,-11 18,-16 21,-26 4,-5 9,-8 15,-10z"/>
   <path class="fil19" d="M1960 1772c9,2 13,8 12,18 -2,11 -3,24 -14,32 -3,-17 -2,-33 2,-50z"/>
   <path class="fil14" d="M1968 2014c5,0 9,0 13,1 15,3 16,5 12,24 -4,3 -9,5 -14,3 -9,-5 -20,-8 -20,-22 3,-2 6,-4 9,-6z"/>
   <path class="fil104" d="M1953 1383c-8,6 -8,15 -12,24 -9,-3 -10,-9 -8,-15 2,-11 5,-20 7,-31 6,7 10,14 13,22z"/>
   <path class="fil105" d="M968 412c0,2 1,4 1,6 -2,1 -4,3 -6,4 -13,-10 -30,-15 -40,-30 2,-1 4,-3 6,-5 16,4 23,22 39,25z"/>
   <path class="fil105" d="M2034 2049c-9,-2 -18,2 -28,-3 13,-16 27,-14 42,-7 -4,5 -9,8 -14,10z"/>
   <path class="fil104" d="M677 1043c22,-12 24,-12 39,14 -14,-2 -28,-5 -39,-14z"/>
   <path class="fil106" d="M988 343c3,6 0,11 -4,15 -6,8 -11,16 -18,25 -5,-7 -2,-14 -3,-21 6,-9 15,-15 25,-19z"/>
   <path class="fil107" d="M1394 633c-8,-7 -12,-16 -12,-29 13,1 21,10 30,15 -5,6 -14,7 -18,14z"/>
   <path class="fil108" d="M1959 2020c8,4 19,5 24,14 -5,11 -17,6 -25,10 -8,-4 -16,-5 -25,-6 8,-7 16,-13 26,-18z"/>
   <path class="fil109" d="M845 1221c-2,-6 -6,-11 -13,-12 -9,-2 -8,-7 -4,-13 4,-6 9,-5 13,-1 5,5 10,11 14,17 -2,4 -5,8 -10,9z"/>
   <path class="fil110" d="M1126 279c7,-8 7,-16 4,-26l0 0c2,0 4,-2 5,-3 2,-1 4,-1 5,-2 0,0 1,2 1,2 1,1 3,3 4,4 0,10 0,20 -4,30 -7,2 -12,3 -15,-5z"/>
   <path class="fil111" d="M303 2231c-24,-12 -27,-18 -20,-41 8,13 15,26 20,41z"/>
   <path class="fil27" d="M1200 283c9,-11 18,-23 34,-24 2,5 6,8 10,10 -14,5 -29,9 -44,14z"/>
   <path class="fil112" d="M682 1373c0,-2 -1,-3 -1,-4 2,-24 4,-25 26,-21 -7,10 -15,18 -25,25z"/>
   <path class="fil19" d="M878 993c-2,15 -7,22 -18,22 -3,0 -6,-1 -8,-4 -2,-4 0,-6 4,-7 5,-3 10,-5 13,-10 3,0 6,-1 9,-1z"/>
   <path class="fil113" d="M1899 1443c2,-1 4,-1 7,-1 17,-1 19,1 16,18 0,4 -2,8 -3,12 -8,-9 -15,-19 -20,-29z"/>
   <path class="fil73" d="M1149 668c-5,6 -7,16 -19,15 -8,-5 -5,-13 -4,-20 7,-5 15,-9 24,-10 5,5 5,10 -1,15z"/>
   <path class="fil103" d="M1605 2320c-4,-1 -9,-1 -12,-3 -4,-1 -4,-5 -3,-8 1,-3 4,-6 7,-5 9,2 18,4 27,6 -6,5 -12,9 -19,10z"/>
   <path class="fil114" d="M1027 954c-4,5 -6,12 -10,16 -8,10 -13,8 -19,-7 9,-5 18,-8 29,-9z"/>
   <path class="fil16" d="M1535 801c-17,0 -33,1 -50,1 -2,-2 -3,-4 -5,-5l5 -6c0,0 1,0 1,0 14,-3 29,-4 44,1l0 0c2,1 3,3 4,5 1,1 1,3 1,4z"/>
   <path class="fil67" d="M508 1481c6,1 13,3 7,12 -2,4 -4,9 -6,13 -1,3 -3,5 -6,6 -7,0 -14,0 -13,-11 4,-8 10,-15 18,-20z"/>
   <path class="fil106" d="M1960 2104c-3,-19 5,-25 29,-21 -9,8 -18,16 -29,21z"/>
   <path class="fil115" d="M1766 2229c0,-1 0,-2 0,-4 0,-2 0,-5 0,-7 1,-7 0,-16 10,-17 10,-1 7,10 11,16 -5,6 -13,9 -21,12z"/>
   <path class="fil105" d="M742 619c-2,-1 -4,-3 -6,-5 -3,-4 -5,-9 -1,-14 4,-6 10,-3 15,0 2,1 4,3 6,4 -4,6 -8,12 -14,15z"/>
   <path class="fil116" d="M2226 1861c3,4 6,7 9,10 -5,8 -11,16 -19,20 -8,-5 -14,-10 -2,-18 4,-3 8,-8 12,-12z"/>
   <path class="fil117" d="M2477 1275c6,-1 12,0 18,3 1,6 1,11 2,16 -11,3 -20,-6 -31,-4l0 0c-1,-2 -2,-4 -2,-6 0,-2 1,-3 3,-4l0 0c2,-4 7,-2 10,-5z"/>
   <path class="fil20" d="M1613 698c5,3 10,6 14,9 -1,9 -6,13 -14,15 -4,-3 -9,-7 -14,-10 1,-8 5,-13 14,-14z"/>
   <path class="fil118" d="M2422 1216c16,13 16,15 -2,25 -3,0 -6,-2 -8,-5 -3,-4 -3,-7 0,-11l0 0c2,-1 4,-3 5,-5l0 0c2,-1 4,-3 5,-5l0 1z"/>
   <path class="fil104" d="M662 974c-1,1 -3,2 -4,3 -8,3 -17,15 -23,7 -8,-10 8,-13 12,-20 6,2 11,5 15,10z"/>
   <path class="fil119" d="M2501 1358c-6,3 -12,7 -19,10 0,-8 0,-16 0,-24 6,-2 13,-4 19,-6 2,7 2,13 0,20z"/>
   <path class="fil120" d="M1101 304c6,-4 11,-9 15,-15 4,7 2,13 -2,18 -4,6 -8,12 -8,20 -2,1 -3,1 -5,2 -7,-8 -3,-17 0,-25z"/>
   <path class="fil121" d="M629 1008c6,1 13,2 19,4 10,3 13,11 9,21 -12,-5 -21,-14 -28,-25z"/>
   <path class="fil88" d="M1071 1043c1,-11 0,-23 15,-25 4,2 7,4 11,6 -8,8 -16,14 -26,19z"/>
   <path class="fil122" d="M1149 668c1,-5 1,-10 1,-15 4,-3 9,-5 15,-5 7,12 -1,19 -9,25 -4,0 -4,-3 -5,-4l-2 -1z"/>
   <path class="fil123" d="M1579 451c-2,4 -4,9 -7,13 -6,12 -14,11 -22,2 8,-7 18,-12 29,-15z"/>
   <path class="fil124" d="M909 1092c-1,22 -3,24 -25,20 7,-8 15,-15 25,-20z"/>
   <path class="fil125" d="M1693 2271c-2,-2 -5,-3 -8,-5 -5,-4 -7,-9 -3,-15 0,-2 2,-3 3,-3 8,0 7,7 10,12 1,3 1,6 2,9 -1,1 -2,2 -4,2z"/>
   <path class="fil105" d="M1017 343c-1,0 -3,0 -4,0 -3,-6 -1,-12 -1,-18 3,-3 6,-6 10,-7 14,11 3,18 -5,25z"/>
   <path class="fil67" d="M904 1171c-6,-10 -5,-19 6,-25 6,5 3,11 4,17 -2,4 -5,7 -10,8z"/>
   <path class="fil32" d="M490 1501c4,4 9,5 15,6 5,11 -3,15 -11,19l-20 -5c4,-8 9,-14 16,-20z"/>
   <path class="fil51" d="M2323 1772c-2,-1 -4,-2 -6,-3 -5,-6 -10,-13 -3,-18 7,-6 9,5 13,9 1,1 2,2 3,3 -1,2 -2,3 -3,5 -1,1 -2,3 -4,4l0 0z"/>
   <path class="fil126" d="M352 1728c-7,3 -14,5 -21,4 1,-7 5,-14 10,-20 5,5 17,-2 16,11 0,0 0,0 0,0 -2,2 -4,4 -5,5z"/>
   <path class="fil51" d="M1693 1275c-5,0 -10,0 -15,0 -2,-1 -3,-1 -5,-2 2,-4 4,-8 5,-13 1,-2 3,-2 5,-1 6,1 13,1 19,1 5,10 -6,10 -9,15z"/>
   <path class="fil125" d="M868 1126c7,13 7,13 -11,23 -3,-9 6,-13 7,-19 1,-2 3,-3 4,-4z"/>
   <path class="fil127" d="M1772 1187c-1,3 -1,6 -1,9 -4,5 -2,11 -2,16 -1,8 -3,14 -12,8 0,-8 0,-16 0,-24 3,-4 7,-8 10,-11 1,0 3,1 5,2z"/>
   <path class="fil38" d="M243 2063c5,2 10,3 15,5 0,7 1,13 1,19 -6,3 -11,-1 -16,-4 0,-7 0,-13 0,-20z"/>
   <path class="fil128" d="M1811 2202c1,-19 1,-19 25,-15 -7,7 -16,12 -25,15z"/>
   <path class="fil122" d="M923 1156c1,-5 1,-10 1,-14 1,-4 2,-9 7,-9 5,0 6,6 8,10 -4,6 -9,10 -16,13z"/>
   <path class="fil24" d="M1293 2379c-6,16 -10,17 -24,7 8,-3 16,-5 24,-7z"/>
   <path class="fil129" d="M1165 895c-2,6 -4,12 -10,15 -7,5 -10,2 -10,-6 6,-5 13,-8 20,-9z"/>
   <path class="fil130" d="M1126 663c4,6 5,13 4,20 -4,2 -9,2 -14,0 -1,-9 0,-16 10,-20z"/>
   <path class="fil88" d="M1732 1300c1,-1 2,-3 3,-4 4,-2 8,-8 13,-5 5,3 2,9 1,13 -1,2 -2,3 -2,5 -6,-2 -11,-4 -15,-9z"/>
   <path class="fil105" d="M865 502c-4,-11 -3,-20 10,-28 -2,10 -4,18 -6,25 -1,1 -3,2 -4,3z"/>
   <path class="fil86" d="M1771 427c0,-3 1,-6 1,-9 5,-5 11,-10 19,-6 -1,13 -9,20 -19,25 0,-4 -1,-7 -1,-10z"/>
   <path class="fil86" d="M1746 357c-7,18 -7,18 -25,15 7,-7 16,-12 25,-15z"/>
   <path class="fil10" d="M2027 1639c-8,-6 -15,-12 -8,-26 3,6 6,11 8,16 0,4 0,7 0,10z"/>
   <path class="fil118" d="M2273 1126c4,3 4,6 -1,8 -9,3 -16,-2 -22,-7 7,-2 15,-2 23,-1z"/>
   <path class="fil19" d="M1791 412c-7,2 -13,4 -19,6 4,-9 11,-16 20,-21 1,5 0,10 -1,15z"/>
   <path class="fil131" d="M294 1807c6,2 12,3 17,10 -7,6 -13,-1 -19,0 1,-4 1,-7 2,-10z"/>
   <path class="fil132" d="M309 1852c-1,0 -2,0 -2,-1 -4,-2 -11,-5 -7,-10 6,-6 9,0 12,5 -1,2 -2,4 -3,6z"/>
   <path class="fil133" d="M834 1155c-1,16 -1,16 -19,16 5,-7 11,-12 19,-16z"/>
   <path class="fil49" d="M2251 1768c1,3 2,6 4,9 -4,6 -10,9 -16,4 2,-5 7,-10 12,-13z"/>
   <path class="fil134" d="M1421 825c-3,-18 9,-8 16,-9 -5,5 -10,8 -16,9z"/>
   <path class="fil86" d="M2491 1418c2,0 4,0 6,0 -1,6 -1,13 -2,19 -3,0 -6,0 -9,0 -7,-9 -4,-15 5,-19l0 0z"/>
   <path class="fil86" d="M2497 1418c-1,-7 0,-14 3,-20 1,7 1,14 -3,20z"/>
   <path class="fil27" d="M367 1733c3,-1 7,-3 10,-5 -1,7 -5,12 -9,16 -1,-3 -1,-7 -1,-11z"/>
   <path class="fil11" d="M1072 2521c1,-2 3,-3 4,-5 4,1 7,1 11,1 -5,3 -10,4 -15,4z"/>
   <path class="fil135" d="M1259 205c-5,3 -11,4 -17,4 5,-4 11,-4 17,-4z"/>
   <path class="fil136" d="M1190 960c3,-2 7,-4 10,-6 -3,4 -6,6 -10,6z"/>
   <path class="fil85" d="M1539 811c-1,-4 -3,-7 -4,-10 3,3 4,6 4,10z"/>
   <path class="fil15" d="M1431 318c-3,-2 -5,-5 -6,-8 0,-1 1,-2 2,-2 6,0 7,3 5,8 0,1 -1,2 -1,2z"/>
   <path class="fil18" d="M2412 1225c0,4 0,7 0,11 -2,-1 -3,-2 -5,-2 2,-3 4,-6 5,-9z"/>
   <path class="fil88" d="M2403 1571c-1,4 -3,7 -6,9 1,-4 3,-7 6,-9z"/>
   <path class="fil13" d="M1353 2437c3,-1 6,-3 9,-4 -2,3 -6,4 -9,4z"/>
   <path class="fil84" d="M2466 1437c-1,3 -2,7 -4,10 0,-4 1,-7 4,-10z"/>
   <path class="fil99" d="M1185 1113c0,1 0,2 0,3 -2,4 -5,4 -9,2 0,0 -1,-1 -1,-2 3,-2 6,-4 10,-3z"/>
   <path class="fil39" d="M273 1951c1,-4 3,-7 4,-11 -1,4 -3,7 -4,11z"/>
   <path class="fil72" d="M284 1917c1,-4 2,-8 3,-11 1,4 0,8 -3,11z"/>
   <path class="fil27" d="M381 1723c2,-3 4,-6 6,-9 0,4 -2,7 -6,9z"/>
   <path class="fil13" d="M1313 1067c-4,1 -8,3 -12,5 3,-4 7,-5 12,-5z"/>
   <path class="fil46" d="M2383 1221c4,0 7,1 10,4 -4,0 -8,-1 -10,-4z"/>
   <path class="fil104" d="M669 978c-2,-1 -5,-3 -7,-4 3,0 5,1 7,4z"/>
   <path class="fil136" d="M1180 968c2,-1 3,-3 5,-4 -2,1 -3,3 -5,4z"/>
   <path class="fil97" d="M1722 1294c1,2 3,3 4,4 -2,0 -4,-1 -4,-4z"/>
   <path class="fil119" d="M2502 1364c0,-2 -1,-4 -1,-6 1,1 2,3 2,4 0,1 -1,1 -1,2z"/>
   <path class="fil136" d="M1185 964c2,-2 4,-3 5,-5 -1,2 -3,3 -5,5z"/>
   <path class="fil90" d="M2467 1284l-1 6c-3,-1 -4,-3 -4,-6 2,-2 3,-2 5,0z"/>
   <path class="fil133" d="M839 1150c-2,2 -3,4 -5,6 1,-3 2,-5 5,-6z"/>
   <path class="fil136" d="M1200 954c2,-1 4,-3 6,-4 -2,1 -4,3 -6,4z"/>
   <path class="fil59" d="M2467 1284c-2,0 -3,0 -5,0 -1,-1 -2,-2 -2,-4 2,0 5,0 7,0 0,2 0,3 0,4z"/>
   <path class="fil136" d="M1209 949c0,-2 0,-3 0,-5 2,0 4,1 6,1 -2,1 -4,2 -6,4z"/>
   <path class="fil136" d="M1220 942c1,-1 2,-2 3,-3 0,2 -1,3 -3,3z"/>
   <path class="fil6" d="M1372 556c-2,1 -4,2 -5,4 1,-2 3,-3 5,-4z"/>
   <path class="fil85" d="M1534 797c-1,-2 -3,-4 -4,-5 1,0 3,-1 4,-1 0,2 0,4 0,6z"/>
   <path class="fil101" d="M396 1700c2,-2 4,-4 5,-6 0,3 -2,5 -5,6z"/>
   <path class="fil52" d="M416 1674c1,-2 2,-3 3,-5 -1,2 -2,3 -3,5z"/>
   <path class="fil27" d="M377 1729c1,-2 3,-4 4,-6 0,3 -2,5 -4,6z"/>
   <path class="fil36" d="M1525 693c-2,1 -4,3 -6,4 1,-3 3,-4 6,-4z"/>
   <path class="fil26" d="M2323 1772c2,-1 3,-3 4,-4 0,2 -1,4 -4,4z"/>
   <path class="fil52" d="M410 1604c-1,2 -2,4 -4,6 0,-3 2,-5 4,-6z"/>
   <path class="fil99" d="M1234 1098c-2,1 -4,2 -6,4 1,-3 3,-4 6,-4z"/>
   <path class="fil27" d="M2397 1580c-1,2 -2,3 -3,5 1,-2 2,-3 3,-5z"/>
   <path class="fil56" d="M2437 1255c2,1 3,3 5,4 -3,0 -4,-1 -5,-4z"/>
   <path class="fil7" d="M658 1033c1,1 2,2 4,3 -2,-1 -3,-2 -4,-3z"/>
   <path class="fil124" d="M914 1088l-5 4c1,-2 2,-4 5,-4z"/>
   <path class="fil74" d="M1135 250c-2,1 -3,2 -5,3 1,-2 3,-3 5,-3z"/>
   <path class="fil9" d="M1342 791c-2,2 -3,4 -5,5 1,-3 3,-4 5,-5z"/>
   <path class="fil21" d="M1276 718c-6,-1 -13,-2 -20,-4 -19,-4 -19,-4 -16,-24 1,-7 -1,-13 -2,-19 -1,-5 1,-10 7,-11 7,-3 7,3 8,8 1,5 3,9 4,14 3,9 8,14 18,11 2,-1 3,-1 5,-1 8,-2 17,-5 19,7 2,9 -6,18 -17,19 -1,0 -3,0 -6,0z"/>
   <path class="fil137" d="M1422 658c8,1 12,5 15,13 3,7 6,14 10,21 -9,16 -26,17 -40,21 -12,0 -16,-4 -10,-15 7,0 13,-1 19,-5 -4,-10 -13,-17 -10,-29 4,-7 10,-8 16,-6z"/>
   <path class="fil69" d="M1397 698c1,6 5,11 10,15 1,3 3,7 3,11 1,8 -4,6 -8,3 -18,-6 -32,-17 -40,-34 -2,-3 -7,-2 -10,-5 0,0 0,0 0,0 0,-1 0,-2 -1,-2 -12,-14 -12,-14 6,-18l3 0c1,0 3,1 4,2 1,1 2,2 3,3 4,16 21,15 30,25z"/>
   <path class="fil138" d="M1367 673c-1,0 -3,0 -5,0 -1,-2 -3,-3 -5,-5l0 0c1,-2 1,-5 2,-7 12,-32 11,-33 -21,-42 -5,-2 -12,-2 -11,-10 1,-9 9,-8 15,-7 30,7 43,36 29,62 -2,3 -3,6 -4,9z"/>
   <path class="fil51" d="M1150 669c2,1 4,3 6,4 0,12 0,23 0,34 -1,10 -6,17 -11,25l0 0c-3,3 -4,9 -8,8 -7,-2 -5,-8 -3,-12 6,-8 10,-15 4,-24 -3,-6 -1,-10 3,-13 7,-6 8,-14 9,-22z"/>
   <path class="fil139" d="M1145 732c10,-2 21,-6 31,-3 5,2 9,5 9,11 -1,5 -5,6 -9,7 -17,3 -23,0 -31,-15 0,0 0,0 0,0z"/>
   <path class="fil69" d="M1406 664c6,9 16,16 10,29 -17,-9 -19,-14 -10,-29z"/>
   <path class="fil51" d="M1422 614c-10,-5 -12,-12 -7,-22 2,-3 5,-5 8,-4 4,1 5,4 4,8 -2,6 -3,12 -5,18l0 0z"/>
   <path class="fil19" d="M712 1279c5,-8 12,-14 20,-20 14,-8 24,-7 35,4 4,4 6,8 2,13 -4,4 -12,8 -15,2 -8,-21 -18,-11 -29,-4 -4,2 -9,3 -13,5l0 0z"/>
   <path class="fil14" d="M964 1097c-2,7 -6,10 -13,9 -6,0 -7,-5 -7,-10 0,-5 2,-10 9,-9 6,0 10,3 11,10z"/>
   <path class="fil19" d="M847 1181c-1,-1 -2,-1 -2,-2 -1,-6 1,-13 7,-16 1,0 4,1 4,2 3,9 0,14 -9,16z"/>
   <path class="fil19" d="M707 1284c1,-1 3,-3 5,-5l0 0c-2,2 -4,4 -5,5 0,0 0,0 0,0z"/>
   <path class="fil82" d="M1958 2044c6,-10 16,-10 25,-10 4,1 7,3 10,5 4,16 4,17 -15,14l0 0c-2,-3 -7,-1 -10,-4 -3,-2 -6,-3 -10,-5z"/>
   <path class="fil105" d="M2184 1861c-3,8 -7,16 -11,24 -4,-15 -4,-15 11,-24z"/>
   <path class="fil45" d="M1520 1146c4,3 8,6 12,9 6,7 3,13 -5,14 -11,2 -21,2 -32,2 12,-9 7,-20 3,-33 9,2 13,14 22,8z"/>
   <path class="fil38" d="M1450 1048c3,5 0,9 -2,12 -3,7 -4,16 -14,17 -2,0 -4,-1 -4,-2 -2,-9 3,-16 7,-23 3,-4 8,-5 13,-4z"/>
   <path class="fil14" d="M1698 2202c2,-4 4,-7 8,-11 7,20 13,40 29,54 -9,0 -18,-4 -25,-8 -22,-13 -27,-8 -12,-35z"/>
   <path class="fil67" d="M1618 2273c-2,-1 -3,-2 -3,-2 2,-7 -6,-16 5,-19 2,-1 6,1 6,2 4,9 -1,15 -8,19z"/>
   <path class="fil140" d="M1645 2257c4,2 6,6 7,11 0,3 -2,5 -5,4 -5,-1 -7,-5 -7,-11 0,-2 1,-4 5,-4z"/>
   <path class="fil31" d="M1923 1402c-1,7 -4,12 -12,13 -8,1 -18,-8 -18,-16 0,-9 6,-10 13,-10 9,-1 16,2 17,13z"/>
   <path class="fil38" d="M1092 2439c7,0 10,3 9,10 -2,8 -3,16 -5,23 -10,1 -16,7 -20,15 -3,-4 -4,-9 -5,-14 2,-2 4,-4 5,-6 3,-11 8,-20 16,-28z"/>
   <path class="fil9" d="M1076 2467c-1,2 -3,4 -5,6 2,-2 4,-4 5,-6z"/>
   <path class="fil141" d="M895 1013c1,-7 3,-12 9,-11 9,0 9,8 9,14 0,5 0,12 -6,11 -10,0 -11,-8 -12,-14z"/>
   <path class="fil19" d="M776 1014c-1,1 -3,3 -5,3 -3,0 -3,-3 -2,-5 1,-2 4,-4 6,-3 1,0 1,3 1,5z"/>
   <path class="fil19" d="M712 1013l-1 0c0,0 1,0 1,0z"/>
   <path class="fil20" d="M1249 1151c10,7 19,15 24,26 5,10 -2,9 -9,9 -1,0 -2,0 -3,0 -2,0 -4,-1 -6,-1 -4,-2 -5,-5 -6,-9 -6,-13 -17,-19 -32,-20 -5,0 -12,-1 -14,-7 -1,-7 5,-11 9,-14 4,-3 8,-6 12,-8 26,-9 17,16 25,24z"/>
   <path class="fil142" d="M1249 1151c-11,-6 -15,-18 -25,-24 0,-2 0,-4 0,-5 5,-3 10,-5 15,-5 3,1 6,1 9,3 11,4 15,10 6,21 -2,3 -3,7 -5,10z"/>
   <path class="fil142" d="M1251 1219c-10,-5 -21,-6 -34,-7 6,-14 16,-17 26,-14 10,3 12,10 8,21z"/>
   <path class="fil143" d="M1264 1191c3,3 7,5 11,9 18,14 18,17 -1,35 -4,-15 -11,-29 -10,-44z"/>
   <path class="fil96" d="M1196 1166c0,5 -3,8 -8,8 -6,-1 -10,-4 -11,-11 0,-4 2,-8 7,-8 7,0 11,4 12,11z"/>
   <path class="fil143" d="M1249 1176c3,1 7,3 10,5 2,1 3,3 5,5l0 0c0,1 0,3 0,5 -9,-1 -18,1 -26,-2 1,-9 7,-10 11,-13z"/>
   <path class="fil144" d="M1176 1118c3,0 6,-1 9,-2 1,3 2,6 -2,7 -3,1 -5,-2 -7,-5z"/>
   <path class="fil12" d="M1323 1131c8,-4 13,-12 19,-19 4,10 7,20 10,29 1,1 2,1 3,2 2,1 2,3 3,5 0,1 0,2 -1,3 8,7 14,14 10,25 0,1 -1,2 -2,4 -10,11 -22,3 -33,0 -8,-7 -17,-12 -29,-14 -13,-2 -20,-10 -14,-24 8,-14 23,-5 34,-11z"/>
   <path class="fil9" d="M1352 1141c1,-5 1,-11 3,-16 1,-4 7,-7 10,-4 17,18 42,17 61,29 5,3 12,3 9,11 -2,8 -10,8 -16,5 -19,-10 -41,-10 -62,-15l0 0c-3,-2 -2,-7 -5,-10l0 0z"/>
   <path class="fil9" d="M1387 1072c-3,11 -3,21 9,27 4,3 8,7 4,12 -3,5 -8,5 -13,3 -12,-3 -23,-23 -19,-35 4,-10 12,-6 19,-7l0 0z"/>
   <path class="fil12" d="M1490 1229c-3,-8 -10,-12 -14,-19 6,-12 14,-15 24,-4 5,-1 10,-2 15,-3 5,0 10,0 11,6 1,5 -2,9 -6,12 -9,5 -20,7 -30,8z"/>
   <path class="fil34" d="M1367 1176c5,0 10,0 15,0 6,0 13,0 16,8 2,8 -1,15 -9,20 -2,1 -5,1 -7,2l0 0c-9,-8 -29,-11 -15,-30l0 0z"/>
   <path class="fil142" d="M1500 1206c-8,1 -16,3 -24,4 -2,-3 -4,-6 -6,-9 7,-9 16,-11 26,-10 5,0 11,-1 11,5 0,3 -4,6 -7,10z"/>
   <path class="fil145" d="M1436 1132c-5,-1 -11,-1 -17,-1 -4,-1 -8,-3 -8,-8 0,-5 2,-9 7,-11 4,-2 8,-1 11,2 5,5 7,11 7,18l0 0z"/>
   <path class="fil19" d="M781 565c-14,22 -31,10 -48,5 22,0 40,-9 57,-27 1,12 -7,16 -9,22z"/>
   <path class="fil16" d="M1432 316c-2,-3 -3,-5 -5,-8 -2,-9 -12,-15 -10,-25 13,2 18,11 21,22 2,6 0,10 -6,11z"/>
   <path class="fil142" d="M1293 1146c4,7 9,9 16,7 6,-2 11,-9 19,-7 0,9 1,17 5,25 -2,20 -18,14 -30,15 -8,-11 -17,-21 -25,-33 -10,-13 -9,-15 10,-22 12,2 9,9 5,15z"/>
   <path class="fil146" d="M1303 1186c11,-4 21,-9 30,-15 11,2 23,3 34,5 0,12 9,20 15,30l-79 -20z"/>
   <path class="fil13" d="M1293 1146c0,-5 -2,-10 -5,-15 0,-4 0,-9 0,-14 17,-6 17,-7 25,9 2,4 6,5 10,5 -10,5 -20,10 -30,15z"/>
   <path class="fil9" d="M1628 1215c-2,0 -4,0 -7,0 -10,-1 -16,-4 -9,-15 3,-5 3,-10 1,-16 -8,-17 -5,-23 14,-25 3,0 7,1 11,2 1,19 -12,35 -10,54z"/>
   <path class="fil49" d="M1757 1220c11,-5 9,-17 14,-24 1,27 1,27 20,34l0 0c12,20 9,26 -12,25 -10,-1 -12,5 -16,11 -8,9 -19,4 -28,6 -6,-3 -7,-7 -3,-12 6,-15 25,-22 25,-40z"/>
   <path class="fil20" d="M1683 1259c-2,1 -3,1 -5,1 -6,-2 -14,-3 -11,-12 3,-9 11,-14 21,-14 5,0 7,5 6,9 -1,7 -7,11 -11,16z"/>
   <path class="fil44" d="M1732 1260c1,3 3,7 4,10 1,1 2,2 1,3 0,1 0,1 -1,1 -1,2 -3,4 -4,6 -12,-12 -26,-8 -39,-5 3,-5 6,-10 9,-15 10,0 20,0 30,0z"/>
   <path class="fil16" d="M1289 2433c-2,0 -3,0 -5,0 -5,-1 -13,2 -13,-5 -1,-8 7,-13 14,-13 4,0 8,1 12,3 4,2 9,5 8,10 -1,7 -7,5 -11,5 -2,0 -3,0 -5,0z"/>
   <path class="fil19" d="M1634 476l0 -20c20,-13 21,-13 41,16 -6,5 -9,-1 -12,-3 -4,-3 -9,-8 -13,-4 -6,5 -1,10 1,15 3,6 6,12 5,19 -12,-3 -13,-18 -22,-23z"/>
   <path class="fil26" d="M1574 501c3,-9 6,-18 10,-27 1,-3 3,-6 7,-6 3,1 5,4 6,7 3,10 2,21 1,31 0,9 -7,10 -14,9 -1,0 -2,0 -3,0 -2,0 -4,-1 -5,-3 -3,-3 -6,-7 -2,-11z"/>
   <path class="fil24" d="M1540 520c-6,6 -11,14 -20,5 0,-1 0,-3 0,-5 0,-8 0,-20 12,-19 11,0 7,12 8,19z"/>
   <path class="fil19" d="M1574 501c1,3 3,6 5,9 2,2 3,4 5,5 0,0 0,0 0,0 -10,2 -28,-4 -30,-11 -2,-4 1,-8 6,-8 5,-1 9,3 14,5z"/>
   <path class="fil147" d="M2250 1191c0,-2 0,-4 0,-5 18,-5 30,-19 44,-30l0 0c-8,21 -22,32 -44,35z"/>
   <path class="fil147" d="M2294 1156c-2,-9 -11,-4 -16,-8 5,-8 12,-14 20,-8 8,6 0,12 -4,16l0 0z"/>
   <path class="fil7" d="M1777 388c-2,5 -4,10 -5,15 -3,-1 -5,-2 -7,-3 -10,-6 -9,-16 -7,-26 1,-2 4,-4 5,-4 9,2 11,10 14,18z"/>
   <path class="fil136" d="M1205 944c-17,1 -20,-14 -25,-25 1,-18 1,-18 16,-15 9,1 10,-4 13,-8 3,-4 4,-10 10,-9 7,1 8,8 9,13 2,12 0,23 -9,31 -5,4 -10,9 -14,13z"/>
   <path class="fil38" d="M1138 2487c-1,5 -4,8 -8,7 -7,-1 -7,-6 -6,-11 1,-4 2,-9 7,-8 5,2 6,7 7,12z"/>
   <path class="fil148" d="M1466 757c5,5 19,8 5,19 -5,-9 -14,-1 -21,-5 1,-10 8,-12 16,-14z"/>
   <path class="fil36" d="M1456 698c2,2 3,3 5,5 -2,-2 -3,-3 -5,-5z"/>
   <path class="fil24" d="M1520 757c-16,-4 -32,-7 -45,-19 6,-7 -2,-21 10,-23 12,-2 16,9 20,18 2,6 5,10 10,14 1,3 3,7 5,10z"/>
   <path class="fil6" d="M1352 688c4,2 7,3 10,5 -3,-2 -6,-3 -10,-5z"/>
   <path class="fil11" d="M992 2477c0,10 1,21 -4,30 0,-10 -1,-20 4,-30z"/>
   <path class="fil127" d="M1722 2201c7,-3 5,-11 9,-17 6,5 11,10 6,17 -4,6 -10,3 -15,0l0 0z"/>
   <line class="fil149" x1="1722" y1="2201" x2="1722" y2= "2201" />
   <path class="fil141" d="M494 1526c-3,-10 5,-14 11,-19 1,0 3,-1 4,-1 1,1 2,1 3,1 5,4 13,5 12,13 -1,9 -10,9 -17,10 -3,1 -5,1 -7,1l0 0c-2,-2 -4,-3 -5,-5l-1 0z"/>
   <path class="fil150" d="M1787 1314c-3,0 -7,0 -10,0 -5,-13 -14,-23 -20,-34 -1,-13 9,-16 17,-22 12,1 25,-16 36,2 -2,14 -4,29 -18,38 -5,4 -5,10 -5,16z"/>
   <path class="fil33" d="M1810 1260c-12,-4 -22,3 -33,5 -7,-1 -15,4 -20,-4 -5,-17 7,-16 17,-15 13,2 17,-4 17,-16 18,3 15,18 19,30z"/>
   <path class="fil85" d="M1530 792c-15,0 -30,-1 -44,-1 14,-6 29,-7 44,1z"/>
   <path class="fil48" d="M2458 1195c-2,1 -3,3 -5,5 -3,1 -6,3 -8,-2 0,-2 3,-3 6,-3 2,0 5,0 7,0 0,0 0,0 0,0z"/>
   <path class="fil12" d="M1076 1004c-1,1 -3,3 -5,4 2,-1 4,-3 5,-4z"/>
   <path class="fil101" d="M391 1679c-1,3 -3,6 -5,10 2,-4 4,-7 5,-10z"/>
   <path class="fil74" d="M1145 254c-1,-1 -3,-3 -4,-4 1,1 3,3 4,4z"/>
   <path class="fil151" d="M1574 742c-3,-1 -5,-1 -7,-2 -2,-1 -4,-3 -3,-6 2,-2 4,0 6,2 1,2 3,4 4,6l0 0z"/>
   <path class="fil18" d="M2422 1215c-2,2 -3,4 -5,5 2,-1 3,-3 5,-5z"/>
   <path class="fil18" d="M2417 1220c-1,2 -3,4 -5,5 2,-1 4,-3 5,-5z"/>
   <path class="fil152" d="M1515 846c8,2 16,4 24,5 -4,14 -9,18 -18,10 -4,-4 -5,-10 -6,-15z"/>
   <path class="fil7" d="M687 1309c-1,1 -1,1 -2,1 1,0 1,-1 2,-1 0,0 0,0 0,0z"/>
   <path class="fil8" d="M1968 2049c4,1 7,3 10,4 -3,-1 -6,-3 -10,-4z"/>
   <path class="fil27" d="M352 1728c1,-2 3,-3 5,-5 0,2 0,3 -1,5 0,0 -2,0 -2,0l-2 0z"/>
   <path class="fil125" d="M1757 1261c7,-2 14,-1 20,4 -7,5 -14,10 -20,15 -7,-1 -16,3 -21,-6 0,-1 0,-3 0,-4 4,-10 14,-6 21,-9z"/>
   <path class="fil44" d="M1727 1289c1,-2 3,-3 4,-5 -1,2 -3,3 -4,5z"/>
   <path class="fil32" d="M495 1526c1,2 3,3 5,5 -2,-2 -4,-3 -5,-5z"/>
   <path class="fil14" d="M2491 1418c-2,6 -3,13 -5,19 -1,1 -3,1 -4,1 -7,-11 -4,-18 9,-20z"/>
   <path class="fil59" d="M2477 1275c-4,2 -7,3 -10,5 3,-2 6,-3 10,-5z"/>
   <path class="fil6" d="M1357 668c2,2 4,3 5,5 -1,-2 -3,-3 -5,-5z"/>
   <path class="fil12" d="M1264 1186c-2,-2 -4,-4 -5,-5 1,1 3,3 5,5z"/>
   <path class="fil13" d="M1352 1141c2,4 4,7 5,10 -1,-3 -3,-6 -5,-10z"/>
   <path class="fil16" d="M1584 515c-1,-1 -3,-3 -5,-5l5 5z"/>
  </g>
 </g>
</svg>
